<?xml version="1.0" encoding="UTF-8" standalone="no"?>
<!-- Created with Inkscape (http://www.inkscape.org/) -->

<svg
   width="210mm"
   height="297mm"
   viewBox="0 0 210 297"
   version="1.1"
   id="svg1"
   inkscape:version="1.4.2 (ebf0e940, 2025-05-08)"
   sodipodi:docname="pledge-handwritten.svg"
   xmlns:inkscape="http://www.inkscape.org/namespaces/inkscape"
   xmlns:sodipodi="http://sodipodi.sourceforge.net/DTD/sodipodi-0.dtd"
   xmlns="http://www.w3.org/2000/svg"
   xmlns:svg="http://www.w3.org/2000/svg">
  <sodipodi:namedview
     id="namedview1"
     pagecolor="#ffffff"
     bordercolor="#000000"
     borderopacity="0.25"
     inkscape:showpageshadow="2"
     inkscape:pageopacity="0.0"
     inkscape:pagecheckerboard="0"
     inkscape:deskcolor="#d1d1d1"
     inkscape:document-units="mm"
     inkscape:zoom="0.89887065"
     inkscape:cx="296.48315"
     inkscape:cy="574.60993"
     inkscape:window-width="2112"
     inkscape:window-height="1186"
     inkscape:window-x="11"
     inkscape:window-y="214"
     inkscape:window-maximized="0"
     inkscape:current-layer="layer1" />
  <defs
     id="defs1" />
  <g
     inkscape:label="Layer 1"
     inkscape:groupmode="layer"
     id="layer1">
    <path
       style="font-size:25.8834px;font-family:'american scribe';-inkscape-font-specification:'american scribe';stroke-width:0.269618"
       d="m -163.71906,111.19151 q 0,0.10354 -0.18118,0.10354 -0.6212,0 -2.89894,-1.29417 -0.56944,-0.18119 -1.55301,-0.77651 -0.41413,-0.38825 -1.32005,-1.553 -1.00945,-1.34594 -1.00945,-1.70831 0,-0.1553 0.20706,-0.28471 0.20707,-0.1553 0.38826,-0.1553 0.20706,0 0.38825,0.25883 0.0776,0.1553 0.28471,0.59532 0.88004,1.81184 2.43304,2.56246 3.26131,1.553 3.26131,2.25185 z m -3.7272,7.81679 q 0,0.10353 -0.0518,0.33648 -0.0259,0.20707 -0.0259,0.3106 0,0.36237 -0.64709,0.80239 -0.64708,0.4659 -1.03533,0.4659 -0.64709,0 -0.64709,-0.67297 0,-0.36237 0.67297,-1.11298 0.67297,-0.77651 1.03534,-0.77651 0.0776,0 0.20706,0.0259 0.49179,0.20706 0.49179,0.6212 z m 5.7979,0 q 0,0.10353 -0.0518,0.33648 -0.0259,0.20707 -0.0259,0.3106 0,0.36237 -0.64708,0.80239 -0.64709,0.4659 -1.03534,0.4659 -0.64708,0 -0.64708,-0.67297 0,-0.36237 0.67297,-1.11298 0.67296,-0.77651 1.03533,-0.77651 0.0776,0 0.20707,0.0259 0.49178,0.20706 0.49178,0.6212 z m 5.79791,0 q 0,0.10353 -0.0518,0.33648 -0.0259,0.20707 -0.0259,0.3106 0,0.36237 -0.64708,0.80239 -0.64709,0.4659 -1.03534,0.4659 -0.64709,0 -0.64709,-0.67297 0,-0.36237 0.67297,-1.11298 0.67297,-0.77651 1.03534,-0.77651 0.0776,0 0.20707,0.0259 0.49178,0.20706 0.49178,0.6212 z m 16.79835,-2.43304 q 0,0.12942 -0.64708,0.72473 -1.55301,1.42359 -2.58834,1.42359 -0.46591,0 -0.85416,-0.38825 -0.36236,-0.41413 -0.44001,-0.41413 -0.0776,0 -0.62121,0.56943 -0.33648,0.38825 -1.21652,1.06122 -0.95768,0.75062 -1.32005,0.88004 -0.33648,0.12941 -0.67297,0.12941 -0.12941,0 -0.41413,-0.0259 -0.28472,-0.0259 -0.41414,-0.0259 -0.38825,0 -0.69885,-0.56944 -0.28472,-0.54355 -0.44002,-0.54355 -0.41413,0 -1.03533,0.59532 -0.18119,0.1553 -0.85415,0.3106 -0.64709,0.18118 -0.93181,0.18118 -0.36236,0 -0.72473,-0.18118 -0.4659,-0.23295 -0.4659,-0.54355 0,-0.3106 0.6212,-1.29417 0.6212,-1.00946 0.6212,-1.11299 -0.0259,-0.0518 -0.0518,-0.0777 -0.0518,0 -0.10353,0 -0.1553,0 -0.6212,0.36237 -0.44002,0.33648 -0.56944,0.33648 -0.28471,0 -0.28471,-0.12941 0,-0.0776 0.10353,-0.15531 0.25883,-0.20706 0.7765,-0.6212 0.25884,-0.25883 0.82827,-0.72473 0.44002,-0.33649 0.95769,-0.72474 0.25883,-0.3106 0.85415,-0.72473 0.44002,-0.18119 0.67297,-0.18119 0.49178,0 0.49178,0.56944 0,0.1553 -0.10353,0.28472 -0.33649,0.38825 -0.98357,1.21652 -0.18118,0.51766 -0.69885,1.553 -0.51767,0.80239 -0.51767,0.88004 0,0.28471 0.4659,0.28471 0.82827,0 1.44947,-1.0871 0.38825,-0.36237 1.0871,-1.19064 0.4659,-0.75061 1.08711,-1.32005 1.0871,-1.03534 1.37182,-1.03534 0.56943,0 0.56943,0.59532 0,0.18119 -0.7765,1.08711 -0.85415,0.98356 -0.98357,1.29417 -0.12942,0.3106 -0.33648,0.85415 0.0259,0.23295 -0.1553,0.67297 -0.0518,0.0518 -0.0518,0.10353 0,0.33648 0.6212,0.33648 0.4659,0 1.553,-0.88003 0.64709,-0.54355 1.26829,-1.73419 0.25884,-0.51767 0.25884,-0.49178 0,-0.0518 -0.12942,-0.31061 -0.10354,-0.28471 -0.10354,-0.4659 0,-0.3106 0.46591,-0.67296 0.4659,-0.38826 0.80238,-0.38826 0.25884,0 0.51767,0.1553 0.25883,0.15531 0.25883,0.41414 0,0.12942 -0.20706,0.54355 -0.18119,0.41413 -0.18119,0.6212 0,0.90592 0.25884,1.16476 0.28471,0.25883 0.41413,0.25883 0.51767,0 1.553,-0.7765 1.03534,-0.80239 1.13887,-0.80239 0.12942,0 0.12942,0.12942 z m 5.22845,0 q 0,0.1553 -0.64708,0.72473 -1.63065,1.42359 -2.69187,2.04479 -1.60477,0.9318 -3.18366,0.9318 -1.32006,0 -1.32006,-1.32005 0,-0.41413 0.59532,-1.11298 0.59532,-0.72474 1.24241,-1.44948 0.64708,-0.75061 1.47535,-1.21651 1.19064,-0.67297 1.553,-0.67297 0.44002,0 0.44002,0.51766 0,1.08711 -1.21652,1.99303 -1.19063,0.88003 -1.99302,1.13887 -0.18118,0.0777 -0.20707,0.10353 0,0 -0.0518,0.18118 -0.20707,0.51767 -0.20707,0.62121 0,0.41413 0.72473,0.41413 0.80239,0 1.94126,-0.59532 0.67297,-0.36237 3.08012,-2.27774 0.18119,-0.1553 0.3106,-0.1553 0.1553,0 0.1553,0.12942 z m -3.59779,-0.85415 q 0,-0.0518 -0.0259,-0.0776 -0.0518,0 -0.10354,0 -0.33648,0 -1.03533,0.64708 -0.69885,0.6212 -0.69885,0.9318 0,0.0776 0.10353,0.0776 0.20707,0 0.7765,-0.38825 0.59532,-0.38825 0.75062,-0.59532 0.23295,-0.38825 0.23295,-0.59531 z m 23.29506,0.85415 q 0,0.33648 -2.58834,2.35539 -0.54355,0.41413 -0.69885,0.51767 -0.36236,0.20706 -0.82827,0.33648 -1.34593,0.41413 -1.553,0.41413 -0.25883,0 -0.6212,-0.33648 -0.36237,-0.33648 -0.36237,-0.59532 0,-0.25883 0.28472,-0.75062 0.3106,-0.49178 0.56943,-0.69885 0.28472,-0.20707 0.88004,-0.90592 0.69885,-0.7765 0.69885,-0.98357 0,-0.20706 -0.25883,-0.20706 -0.41414,0 -1.19064,0.49178 -0.7765,0.4659 -1.06122,0.82827 -0.41413,0.51767 -1.47535,1.63065 -1.16476,1.21652 -1.44947,1.39771 -0.28472,0.18118 -0.4659,0.18118 -0.25884,0 -0.54356,-0.23295 -0.28471,-0.20707 -0.28471,-0.44002 0,-0.12941 0.12941,-0.23295 0.4659,-0.44002 1.37182,-1.37182 0.23295,-0.3106 0.72474,-1.06122 0.56943,-0.88003 0.56943,-1.06122 0,-0.0777 -0.18118,-0.0777 -0.28472,0 -0.59532,0.12942 -1.00945,0.44002 -2.07067,1.2424 -0.18118,0.1553 -1.63065,1.65654 -1.29417,1.34594 -1.50124,1.37182 -0.18119,0.0259 -0.38825,0.0259 -0.67297,0 -0.67297,-0.25883 0,-0.41413 1.44947,-1.96714 1.47535,-1.553 1.47535,-1.99302 0,-0.10353 -0.12941,-0.10353 -0.28472,0 -1.42359,0.95768 -1.13887,0.93181 -1.26829,0.93181 -0.12941,0 -0.12941,-0.20707 0,-0.10354 0.28471,-0.33649 0.85416,-0.69885 2.53658,-2.07067 0.44001,-0.33648 0.95768,-0.33648 0.23295,0 0.54355,0.10353 0.41414,0.1553 0.41414,0.33649 0,0.10353 -0.20707,0.49178 -0.20707,0.38825 -0.20707,0.4659 0.0259,0 0.0518,0 0.0259,0 1.32005,-0.7765 1.32006,-0.7765 1.76007,-0.7765 0.23296,0 0.59532,0.25883 0.36237,0.23295 0.36237,0.4659 0,0.1553 -0.1553,0.51767 -0.12942,0.33648 -0.12942,0.44002 0,0.0259 0.0259,0.0518 -0.0777,0 1.0871,-0.72473 1.16475,-0.72474 2.35539,-0.72474 0.88003,0 0.88003,0.88004 0,0.98357 -2.04478,2.69187 -0.20707,0.18119 -0.20707,0.3106 0,0.33649 0.54355,0.33649 0.75062,0 2.48481,-1.34594 1.73418,-1.37182 1.83772,-1.37182 0.12941,0 0.12941,0.12942 z m 8.41211,-0.0777 q 0,0.3106 -1.91538,1.81184 -1.78595,1.37182 -2.3295,1.65653 -0.51767,0.28472 -1.78596,0.28472 -0.59531,0 -0.59531,-0.41413 0,-0.0776 0.0259,-0.20707 0.0259,-0.12942 0.0259,-0.20707 0,-0.25883 -0.12941,-0.25883 -0.41414,0 -1.37182,0.67297 -0.69886,0.49178 -1.76008,0.49178 -1.16475,0 -1.16475,-1.11298 0,-1.21652 1.553,-2.20009 0.28472,-0.18119 0.85416,-0.64709 0.33648,-0.38825 0.6212,-0.72473 0.3106,-0.33649 0.82827,-0.62121 0.25883,-0.1553 0.4659,-0.1553 0.44002,0 0.44002,0.54356 0,0.38825 -0.82827,1.0871 -2.30362,1.94125 -2.30362,2.84717 0,0.28472 0.3106,0.28472 0.82826,0 2.7954,-1.52712 0.23295,-0.20707 0.98357,-1.16475 0.41414,-0.3106 1.26829,-1.21652 0.33648,-0.4659 0.44002,-0.59532 0.3106,-0.3106 0.6212,-0.3106 h 0.1553 q 0.56943,-0.0259 0.56943,0.3106 0,0.4659 -0.72473,1.11298 -0.90592,0.80239 -1.00945,0.98357 -0.98357,1.68242 -0.98357,2.07068 0,0.1553 0.20706,0.1553 0.56944,0 2.53658,-1.52712 1.96714,-1.52713 2.07067,-1.52713 0.12942,0 0.12942,0.10354 z m 15.970052,-4.73666 q 0,0.36236 -0.569435,0.38825 -0.983569,-0.0259 -2.950708,0.0518 -0.647085,0.0259 -0.880035,0.0259 0.103533,0 -0.621202,-0.0777 -0.388251,-0.0518 -1.035336,-0.0518 h -0.672968 q -0.543552,0 -1.578888,0.0776 -1.009452,0.0777 -1.52712,0.0777 -0.129417,0 -0.414135,-0.0259 -0.284715,0 -0.414135,0 -1.00945,0 -2.69187,2.74364 -0.41414,0.51767 -1.11299,1.65654 -0.10353,0.28471 -0.33648,0.80238 -0.0777,0.18118 -0.49179,0.75062 -0.33648,0.44002 -0.33648,0.7765 0,0.4659 0.41413,0.4659 0.7765,0 2.71776,-1.47535 1.96714,-1.50124 2.04479,-1.50124 0.12942,0 0.12942,0.12942 0,0.1553 -0.64709,0.72473 -0.88004,0.77651 -2.71776,2.14833 -0.36236,0.18118 -1.06122,0.54355 -0.12941,0.10353 -0.67296,0.23295 -0.54356,0.1553 -0.72474,0.1553 -0.41413,0 -0.82827,-0.3106 -0.38825,-0.3106 -0.38825,-0.72474 0,-0.3106 0.54355,-1.21652 0.25884,-0.44002 0.54355,-0.88003 -0.0259,-0.0259 -0.10353,-0.0259 -0.12942,0 -0.64709,0.41414 -0.49178,0.38825 -0.69885,0.38825 -0.25883,0 -0.25883,-0.10353 0,-0.0777 0.28472,-0.28472 0.64708,-0.6212 2.04478,-1.78596 1.08711,-0.82827 2.56246,-3.05424 0.18119,-0.28472 0.18119,-0.38825 0,-0.12942 -0.15531,-0.12942 -0.12941,-0.0259 -0.41413,-0.0777 -0.28472,-0.0518 -0.4659,-0.0518 -0.1553,0 -0.49179,0.0518 -0.33648,0.0518 -0.49178,0.0518 -0.12942,0 -0.38825,0 -0.23295,-0.0259 -0.38825,-0.0259 h -0.7765 q -1.34594,0 -1.52712,-0.0777 -0.18119,-0.0776 -0.18119,-0.23295 0,-0.20707 0.23295,-0.25884 0.25884,-0.0518 1.88949,-0.0518 0.28472,0 0.82827,-0.0518 0.54355,-0.0518 0.82827,-0.0518 0.20707,0 0.67297,0 0.4659,0.0259 0.69885,0.0259 0.6212,0 0.82827,-0.18119 0.7765,-0.64708 1.26828,-1.63065 0.4659,-0.90592 1.553008,-2.12244 0.284717,-0.36237 0.569434,-0.72474 0.414135,-0.4659 0.724736,-0.51766 0.23295,-0.0259 0.388251,-0.0259 0.414134,0 0.414134,0.25884 0,0.20706 -0.388251,0.82827 -0.388251,0.6212 -0.621202,0.80238 -0.491784,0.38825 -1.061219,1.26829 -0.284717,0.41413 -1.087101,1.34593 -0.12942,0.1553 -0.12942,0.25884 0,0.33648 0.67297,0.38825 0.207067,0.0259 1.734187,0.0777 1.863605,0.0518 1.811838,0.0518 h 0.207068 q 0.854152,-0.0518 2.58834,-0.12942 h 0.23295 q 0.336484,0 0.983569,0.0777 0.647085,0.0518 0.957686,0.0518 0.181184,0 0.517668,-0.0259 0.362368,-0.0259 0.517668,-0.0259 0.362368,0 0.362368,0.20707 z m -1.941255,4.73666 q 0,0.3106 -1.915372,1.81184 -1.785954,1.37182 -2.329506,1.65653 -0.517668,0.28472 -1.785954,0.28472 -0.595319,0 -0.595319,-0.41413 0,-0.0776 0.02588,-0.20707 0.02588,-0.12942 0.02588,-0.20707 0,-0.25883 -0.129417,-0.25883 -0.414134,0 -1.37182,0.67297 -0.698856,0.49178 -1.760076,0.49178 -1.16475,0 -1.16475,-1.11298 0,-1.21652 1.55301,-2.20009 0.28471,-0.18119 0.85415,-0.64709 0.336482,-0.38825 0.6212,-0.72473 0.3106,-0.33649 0.828268,-0.62121 0.258834,-0.1553 0.465902,-0.1553 0.440017,0 0.440017,0.54356 0,0.38825 -0.828268,1.0871 -2.303619,1.94125 -2.303619,2.84717 0,0.28472 0.3106,0.28472 0.828266,0 2.795404,-1.52712 0.232951,-0.20707 0.983569,-1.16475 0.414135,-0.3106 1.268287,-1.21652 0.336484,-0.4659 0.440018,-0.59532 0.3106,-0.3106 0.621201,-0.3106 h 0.155301 q 0.569434,-0.0259 0.569434,0.3106 0,0.4659 -0.724735,1.11298 -0.905919,0.80239 -1.009452,0.98357 -0.98357,1.68242 -0.98357,2.07068 0,0.1553 0.207068,0.1553 0.569434,0 2.536573,-1.52712 1.967138,-1.52713 2.070672,-1.52713 0.129417,0 0.129417,0.10354 z m 7.09205,0.0777 q 0,0.12942 -0.232951,0.33648 -0.569435,0.56944 -1.941255,1.68242 -1.578887,1.26829 -2.070672,1.42359 -0.491785,0.1553 -0.776502,0.1553 -0.465901,0 -0.698852,-0.41413 -0.207067,-0.38825 -0.284717,-0.38825 -0.155301,0 -0.931803,0.49178 -0.517668,0.36237 -1.216519,0.36237 -1.190637,0 -1.190637,-0.64709 0,-1.03533 0.362368,-1.47535 0.181184,-0.25883 0.595318,-0.72474 0.543551,-0.54355 1.760071,-1.52712 1.837722,-1.19063 2.407156,-1.19063 0.543552,0 0.698852,0.38825 0.181184,0.38825 0.310601,0.38825 0.181184,0 0.388251,-0.23295 0.232951,-0.25884 0.543551,-0.25884 0.414135,0 0.414135,0.28472 0,0.20707 -1.242403,1.65654 -1.21652,1.44947 -1.21652,1.8636 0,0.36237 0.23295,0.36237 0.517668,0 2.148323,-1.32005 1.656537,-1.34594 1.811838,-1.34594 0.129417,0 0.129417,0.12942 z m -4.011927,-0.85415 q 0,-0.33649 -0.310601,-0.33649 -0.802386,0 -1.993022,1.21652 -1.190636,1.19064 -1.190636,2.04479 0,0.44002 0.414134,0.44002 0.362368,0 1.035336,-0.4659 0.672968,-0.4659 0.957686,-0.80239 1.087103,-1.37182 1.087103,-2.09655 z m 14.417038,-9.8357 q 0,0.75062 -0.543551,1.47536 -0.543551,0.95768 -1.734188,2.79541 -1.087103,1.44947 -2.950707,3.106 -0.724736,0.64709 -1.785955,1.37182 -0.310601,0.20707 -0.880036,0.69886 -0.569434,0.4659 -1.863604,2.76952 -0.284718,0.49178 -0.284718,0.67297 0,0.41413 0.517668,0.41413 0.155301,0 0.647085,-0.12941 0.931803,-0.25884 1.682421,-0.80239 0.750619,-0.56944 2.122439,-1.65654 0.181184,-0.1553 0.310601,-0.1553 0.1553,0 0.1553,0.12942 0,0.1553 -0.621201,0.69885 -0.621202,0.54355 -1.13887,0.98357 -0.802385,0.64708 -2.044789,1.34594 -1.475353,0.82827 -2.174205,0.82827 -0.362368,0 -0.802386,-0.36237 -0.414134,-0.36237 -0.414134,-0.69885 0,-0.20707 0.388251,-0.93181 0.414134,-0.72473 0.414134,-0.95768 0,-0.10354 -0.07765,-0.10354 -0.129417,0 -0.491784,0.28472 -0.362368,0.28472 -0.543552,0.28472 -0.284717,0 -0.284717,-0.12942 0,-0.0518 0.284717,-0.25883 0.543552,-0.4659 1.604771,-1.37182 0.465901,-0.41414 1.320053,-1.32006 1.345937,-1.91537 2.51069,-3.80486 0.543552,-0.88003 2.58834,-3.46837 0.595318,-0.67297 1.785955,-2.01891 0.698852,-0.85415 1.242403,-0.85415 0.258834,0 0.621202,0.33649 0.388251,0.3106 0.414134,0.59531 0.02588,0.0776 0.02588,0.23295 z m -1.138869,0.88004 q 0,-0.23295 -0.155301,-0.23295 -1.268286,0 -3.986043,4.08958 -0.440018,0.54355 -1.21652,1.65653 -0.905919,1.65654 -0.905919,1.65654 0,0.0777 0.05177,0.0518 0.336484,-0.12942 1.242403,-0.85415 0.310601,-0.23295 0.698852,-0.54355 0.828269,-0.69886 1.37182,-1.34594 2.898941,-3.52014 2.898941,-4.47783 z m 6.910857,-0.88004 q 0,0.75062 -0.543551,1.47536 -0.543552,0.95768 -1.734188,2.79541 -1.087103,1.44947 -2.950708,3.106 -0.724735,0.64709 -1.785954,1.37182 -0.310601,0.20707 -0.880036,0.69886 -0.569435,0.4659 -1.863605,2.76952 -0.284717,0.49178 -0.284717,0.67297 0,0.41413 0.517668,0.41413 0.1553,0 0.647085,-0.12941 0.931802,-0.25884 1.682421,-0.80239 0.750619,-0.56944 2.122439,-1.65654 0.181184,-0.1553 0.310601,-0.1553 0.1553,0 0.1553,0.12942 0,0.1553 -0.621202,0.69885 -0.621201,0.54355 -1.138869,0.98357 -0.802386,0.64708 -2.044789,1.34594 -1.475354,0.82827 -2.174205,0.82827 -0.362368,0 -0.802386,-0.36237 -0.414134,-0.36237 -0.414134,-0.69885 0,-0.20707 0.388251,-0.93181 0.414134,-0.72473 0.414134,-0.95768 0,-0.10354 -0.07765,-0.10354 -0.129417,0 -0.491785,0.28472 -0.362367,0.28472 -0.543551,0.28472 -0.284717,0 -0.284717,-0.12942 0,-0.0518 0.284717,-0.25883 0.543551,-0.4659 1.604771,-1.37182 0.465901,-0.41414 1.320053,-1.32006 1.345937,-1.91537 2.51069,-3.80486 0.543551,-0.88003 2.58834,-3.46837 0.595318,-0.67297 1.785955,-2.01891 0.698851,-0.85415 1.242403,-0.85415 0.258834,0 0.621201,0.33649 0.388251,0.3106 0.414135,0.59531 0.02588,0.0776 0.02588,0.23295 z m -1.138869,0.88004 q 0,-0.23295 -0.155301,-0.23295 -1.268286,0 -3.986043,4.08958 -0.440018,0.54355 -1.21652,1.65653 -0.905919,1.65654 -0.905919,1.65654 0,0.0777 0.05177,0.0518 0.336484,-0.12942 1.242403,-0.85415 0.310601,-0.23295 0.698852,-0.54355 0.828268,-0.69886 1.37182,-1.34594 2.898941,-3.52014 2.898941,-4.47783 z m 6.936741,9.80981 q 0,0.1553 -0.647085,0.72473 -2.717757,2.38128 -5.09903,3.49426 -0.905919,0.41414 -1.993022,1.03534 -0.1553,0.18118 -0.698852,1.16475 -0.388251,0.69885 -1.21652,2.09656 -0.672968,1.03533 -1.320053,2.09655 -0.931802,1.39771 -1.475354,1.86361 -2.070672,1.78595 -3.364842,1.78595 -0.880035,0 -0.880035,-0.80238 0,-0.4659 0.414134,-1.08711 0.647085,-0.7765 1.811838,-2.43304 0.491785,-0.80238 1.604771,-1.52712 0.362367,-0.23295 1.009452,-0.90592 0.672969,-0.64708 1.06122,-0.90591 2.070672,-1.26829 2.873057,-2.95071 0.232951,-0.38825 0.465901,-0.88004 l -0.02588,-0.0259 q -0.284717,0 -0.983569,0.36237 -0.698852,0.33648 -1.13887,0.33648 -0.517668,0 -0.905919,-0.3106 -0.388251,-0.3106 -0.388251,-0.80239 0,-0.90591 1.242403,-2.04478 1.242404,-1.16476 1.242404,-1.39771 0,-0.1553 -0.103534,-0.1553 -0.1553,0 -0.543551,0.33649 -0.284718,0.1553 -0.750619,0.59531 -0.129417,0.18119 -0.517668,0.46591 -0.465901,0.28471 -0.595318,0.44001 -0.672969,0.69886 -0.905919,0.69886 -0.181184,0 -0.181184,-0.23296 0,-0.1553 0.181184,-0.3106 0.336484,-0.23295 0.957686,-0.80238 1.734187,-1.86361 2.691873,-2.22597 0.543552,-0.18119 0.698852,-0.18119 0.258834,0 0.543551,0.41414 0.310601,0.38825 0.310601,0.67297 0,0.72473 -1.320053,1.83772 -1.29417,1.11298 -1.29417,1.7083 0,0.33649 0.310601,0.33649 0.284717,0 0.880035,-0.33649 1.397704,-0.80238 2.174206,-1.68242 0.388251,-0.44002 1.138869,-1.34594 0.543552,-0.82827 0.98357,-1.11298 0.284717,-0.20707 1.112986,-0.20707 0.181184,0 0.181184,0.36237 0,0.59532 -1.21652,1.7083 -0.388251,0.36237 -1.29417,1.29417 -0.362368,0.41414 -1.035336,1.32006 -0.828269,1.13886 -0.828269,1.3977 0,0.0518 0.05177,0.0518 0,0 1.37182,-0.62121 1.37182,-0.6212 2.355389,-1.29417 0.388251,-0.25883 2.096556,-1.57888 0.698852,-0.56944 0.802385,-0.56944 0.155301,0 0.155301,0.12942 z m -9.680392,6.72968 q 0,-0.0518 -0.02588,-0.0518 -0.181184,0 -0.98357,0.64708 -0.647085,0.54355 -0.931802,0.82827 -0.672968,0.69885 -1.475354,1.2424 -0.517668,0.33649 -1.397703,1.83772 -0.905919,1.50124 -0.905919,1.57889 0,0.1553 0.1553,0.1553 0.284717,0 1.21652,-0.69885 0.750618,-0.56943 1.164753,-0.95769 0.621201,-0.6212 2.58834,-3.52014 0.595318,-0.9318 0.595318,-1.06122 z m 23.993887,-6.52261 q 0,0.18118 -1.164753,1.16475 -0.983569,0.82827 -1.44947,1.13887 -1.889488,1.32005 -2.717757,1.32005 -0.258834,0 -0.569435,-0.12942 -1.138869,-0.41413 -1.138869,-1.2424 0,-0.33648 0.828268,-0.9318 1.29417,-0.95769 1.553004,-1.21652 0.828269,-0.80239 0.828269,-1.57889 0,-0.41413 -0.362367,-0.41413 -0.621202,0 -1.682421,0.95768 -0.543552,0.4659 -1.164753,1.26829 -0.491785,0.69885 -1.009453,1.3977 -1.578887,2.01891 -2.924824,4.71078 -0.440018,0.67297 -1.29417,2.09656 0,0.0259 -0.207067,0.56943 -0.232951,0.56944 -0.98357,1.16476 -0.3106,0.23295 -0.543551,0.23295 -0.129417,0 -0.465901,0.12941 -0.336484,0.12942 -0.543552,0.12942 -0.491784,0 -0.491784,-0.41413 0,-0.56944 0.543551,-1.21652 0.07765,-0.10354 0.957686,-0.98357 1.889488,-1.91537 3.080125,-3.77898 1.242403,-1.99302 2.044788,-3.15777 0.336484,-0.46591 0.336484,-0.69886 0,-0.10353 -0.05177,-0.10353 -0.07765,0 -0.465902,0.3106 -0.388251,0.28472 -0.543551,0.28472 -0.284717,0 -0.284717,-0.12942 0,-0.0777 0.3106,-0.3106 0.647085,-0.59532 2.018906,-1.73419 0.23295,-0.23295 0.724735,-0.72473 0.465901,-0.38825 1.44947,-2.14832 0.931803,-1.60478 1.345937,-1.81184 0.207067,-0.10354 0.491785,-0.4659 0.3106,-0.38825 0.517668,-0.49179 0.621201,-0.33648 0.802385,-0.33648 0.465901,0 0.465901,0.23295 0,0.10353 -0.207067,0.49178 -0.517668,0.95769 -1.13887,1.65654 -1.760071,2.01891 -1.760071,2.22597 0,0.10354 0.07765,0.10354 0.05177,0 0.621202,-0.23295 0.569435,-0.23295 0.595318,-0.23295 0.207067,-0.0777 0.465901,-0.0777 0.05177,0 0.155301,0 0.07765,0.0259 0.129417,0.0259 0.776502,0 0.776502,1.2424 0,1.00945 -0.517668,1.68242 -0.388251,0.51767 -1.37182,1.19064 -0.05177,0.0259 -0.931803,0.36237 -0.724735,0.28471 -0.724735,0.4659 v 0.23295 q 0.103534,0.6212 0.802385,0.6212 0.750619,0 4.348412,-2.82129 0.1553,-0.1553 0.3106,-0.1553 0.129417,0 0.129417,0.12942 z m 10.715713,-10.89692 q 0,0.75062 -0.543551,1.47536 -0.543552,0.95768 -1.734188,2.79541 -1.087103,1.44947 -2.950708,3.106 -0.724735,0.64709 -1.785954,1.37182 -0.310601,0.20707 -0.880036,0.69886 -0.569435,0.4659 -1.863605,2.76952 -0.284717,0.49178 -0.284717,0.67297 0,0.41413 0.517668,0.41413 0.1553,0 0.647085,-0.12941 0.931802,-0.25884 1.682421,-0.80239 0.750618,-0.56944 2.122439,-1.65654 0.181183,-0.1553 0.3106,-0.1553 0.155301,0 0.155301,0.12942 0,0.1553 -0.621202,0.69885 -0.621201,0.54355 -1.138869,0.98357 -0.802386,0.64708 -2.044789,1.34594 -1.475354,0.82827 -2.174206,0.82827 -0.362367,0 -0.802385,-0.36237 -0.414134,-0.36237 -0.414134,-0.69885 0,-0.20707 0.388251,-0.93181 0.414134,-0.72473 0.414134,-0.95768 0,-0.10354 -0.07765,-0.10354 -0.129417,0 -0.491785,0.28472 -0.362367,0.28472 -0.543551,0.28472 -0.284718,0 -0.284718,-0.12942 0,-0.0518 0.284718,-0.25883 0.543551,-0.4659 1.604771,-1.37182 0.465901,-0.41414 1.320053,-1.32006 1.345937,-1.91537 2.51069,-3.80486 0.543551,-0.88003 2.58834,-3.46837 0.595318,-0.67297 1.785954,-2.01891 0.698852,-0.85415 1.242404,-0.85415 0.258834,0 0.621201,0.33649 0.388251,0.3106 0.414135,0.59531 0.02588,0.0776 0.02588,0.23295 z m -1.13887,0.88004 q 0,-0.23295 -0.1553,-0.23295 -1.268287,0 -3.986044,4.08958 -0.440017,0.54355 -1.216519,1.65653 -0.905919,1.65654 -0.905919,1.65654 0,0.0777 0.05177,0.0518 0.336485,-0.12942 1.242404,-0.85415 0.3106,-0.23295 0.698851,-0.54355 0.828269,-0.69886 1.371821,-1.34594 2.89894,-3.52014 2.89894,-4.47783 z m 1.682411,9.80981 q 0,0.1553 -0.647085,0.72473 -1.630654,1.42359 -2.691873,2.04479 -1.604771,0.9318 -3.183659,0.9318 -1.320053,0 -1.320053,-1.32005 0,-0.41413 0.595318,-1.11298 0.595318,-0.72474 1.242403,-1.44948 0.647085,-0.75061 1.475354,-1.21651 1.190637,-0.67297 1.553004,-0.67297 0.440018,0 0.440018,0.51766 0,1.08711 -1.21652,1.99303 -1.190636,0.88003 -1.993022,1.13887 -0.181183,0.0777 -0.207067,0.10353 0,0 -0.05177,0.18118 -0.207067,0.51767 -0.207067,0.62121 0,0.41413 0.724735,0.41413 0.802386,0 1.941255,-0.59532 0.672969,-0.36237 3.080125,-2.27774 0.181184,-0.1553 0.310601,-0.1553 0.1553,0 0.1553,0.12942 z m -3.597792,-0.85415 q 0,-0.0518 -0.02588,-0.0776 -0.05177,0 -0.103533,0 -0.336485,0 -1.035336,0.64708 -0.698852,0.6212 -0.698852,0.9318 0,0.0776 0.103533,0.0776 0.207068,0 0.776502,-0.38825 0.595319,-0.38825 0.750619,-0.59532 0.232951,-0.38825 0.232951,-0.59531 z m 16.306554,-10.32748 q 0,0.18118 -0.362368,0.72474 -0.414134,0.6212 -0.491784,0.80238 -0.543552,0.85415 -1.320054,2.07067 -0.517668,1.00946 -1.553004,2.53658 -0.931802,0.95768 -1.138869,1.47535 -0.181184,0.51767 -1.501238,1.94125 -0.569434,0.62121 -1.397703,1.76008 -1.035336,1.3977 -1.035336,1.81183 0,0.67297 0.569435,0.67297 0.517668,0 2.251855,-1.37182 1.760072,-1.37182 1.889489,-1.37182 0.129417,0 0.129417,0.12942 0,0.25883 -1.785955,1.68242 -1.682421,1.37182 -2.174206,1.57889 -0.776502,0.36236 -1.345936,0.36236 -0.388251,0 -0.698852,-0.23295 -0.310601,-0.23295 -0.310601,-0.59531 0,-0.0777 -0.05177,-0.0777 -0.05177,0 -1.061219,0.54355 -0.983569,0.54355 -1.734188,0.54355 -1.682421,0 -1.682421,-1.11299 0,-0.7765 1.242403,-2.27774 0.621202,-0.7765 1.993022,-1.65653 1.501237,-0.95769 2.329506,-0.95769 0.310601,0 0.698852,0.36237 0.388251,0.36236 0.491784,0.36236 0.181184,0 0.362368,-0.23295 0,-0.0259 0.647085,-1.06122 1.345937,-1.96713 3.88251,-5.95318 0.310601,-0.54355 0.647085,-1.11298 0.336484,-0.56944 0.750619,-0.95769 1.164753,-1.0871 1.320053,-1.0871 0.440018,0 0.440018,0.69885 z m -8.722706,10.43101 q 0,-0.20707 -0.207067,-0.41413 -0.207067,-0.23295 -0.414135,-0.23295 -0.23295,0 -0.802385,0.25883 -0.465901,0.20707 -1.242403,1.11299 -0.232951,0.36236 -0.647085,1.0871 -0.647085,1.0871 -0.647085,1.29417 0,0.20707 0.1553,0.41413 0.155301,0.18119 0.362368,0.18119 0.336484,0 1.889488,-1.24241 0.543551,-0.41413 0.802385,-0.88003 0.284718,-0.49179 0.543552,-1.00946 0.207067,-0.33648 0.207067,-0.56943 z m 12.191078,0.75062 q 0,0.28472 -1.941255,1.81184 -1.630655,1.29417 -2.381273,1.78595 -1.268287,0.82827 -1.811838,1.44947 -0.621202,1.00945 -1.760071,2.76953 -1.449471,2.25185 -1.863605,2.84717 -1.112986,1.57889 -2.174206,2.58834 -1.734188,1.65654 -2.691873,1.65654 -0.440018,0 -0.440018,-0.59532 0,-1.44947 0.880035,-2.79541 0.621202,-0.90592 2.018906,-2.1742 0.465901,-0.49179 1.501237,-1.34594 0.465901,-0.3106 1.112986,-0.9318 0.802385,-0.75062 1.087103,-0.98357 1.164753,-0.90592 1.656537,-1.96714 0.621202,-1.32005 0.621202,-1.13887 0,-0.0259 -0.02588,-0.0259 0.05177,0 -0.802386,0.41413 -0.854152,0.41414 -1.475354,0.41414 -0.491784,0 -0.854152,-0.51767 -0.336484,-0.49179 -0.336484,-1.00946 0,-0.7765 0.517668,-1.29417 0.931802,-0.95768 2.070672,-1.7083 1.475354,-0.98357 2.43304,-0.98357 0.491784,0 0.621201,0.36237 0.05177,0.20707 0.181184,0.20707 0.129417,0 0.414134,-0.36237 0.310601,-0.36237 0.802386,-0.36237 0.647085,0 0.647085,0.4659 0,0.20707 -0.414135,0.85415 -0.388251,0.64709 -0.595318,0.85416 -0.802385,0.88003 -1.112986,1.3977 -0.362368,0.6212 -0.854152,1.60477 l -0.02588,0.0259 q 0.02588,0.0259 0.05177,0.0259 0.207067,0 4.503712,-3.31308 0.181184,-0.1553 0.310601,-0.1553 0.129417,0 0.129417,0.12942 z m -4.555479,-0.33649 q 0,-0.51766 -0.414134,-0.51766 -0.103534,0 -0.310601,0.12941 -0.207067,0.10354 -0.258834,0.12942 -0.647085,0.20707 -1.578887,1.34594 -0.931803,1.11298 -0.931803,1.78595 0,0.38825 0.414135,0.38825 0.595318,0 1.708304,-0.82827 0.414134,-0.33648 1.13887,-1.68242 0.23295,-0.44001 0.23295,-0.75062 z m -3.934277,7.35089 q -0.02588,-0.0776 -0.07765,-0.0776 0.07765,0 -0.647085,0.49178 -1.52712,1.03534 -3.313075,3.00248 -1.242403,1.3977 -1.604771,2.45892 -0.181184,0.51767 -0.181184,0.72474 0,0.18118 0.103534,0.18118 0.207067,0 1.242403,-0.9318 0.595318,-0.51767 2.484807,-2.92483 1.993021,-2.53657 1.993021,-2.92482 z m 13.74411,-7.0144 q 0,0.1553 -0.647085,0.72473 -1.630654,1.42359 -2.691873,2.04479 -1.604771,0.9318 -3.183659,0.9318 -1.320053,0 -1.320053,-1.32005 0,-0.41413 0.595318,-1.11298 0.595318,-0.72474 1.242403,-1.44948 0.647085,-0.75061 1.475354,-1.21651 1.190637,-0.67297 1.553004,-0.67297 0.440018,0 0.440018,0.51766 0,1.08711 -1.21652,1.99303 -1.190636,0.88003 -1.993022,1.13887 -0.181183,0.0777 -0.207067,0.10353 0,0 -0.05177,0.18118 -0.207067,0.51767 -0.207067,0.62121 0,0.41413 0.724735,0.41413 0.802386,0 1.941255,-0.59532 0.672969,-0.36237 3.080125,-2.27774 0.181184,-0.1553 0.310601,-0.1553 0.1553,0 0.1553,0.12942 z m -3.597792,-0.85415 q 0,-0.0518 -0.02588,-0.0776 -0.05177,0 -0.103533,0 -0.336485,0 -1.035336,0.64708 -0.698852,0.6212 -0.698852,0.9318 0,0.0776 0.103533,0.0776 0.207068,0 0.776502,-0.38825 0.595319,-0.38825 0.750619,-0.59532 0.232951,-0.38825 0.232951,-0.59531 z m 27.2034303,-3.96016 q 0,0.36236 -0.5694348,0.38825 -0.9835692,-0.0259 -2.9507076,0.0518 -0.647085,0.0259 -0.8800356,0.0259 0.1035336,0 -0.6212016,-0.0777 -0.388251,-0.0518 -1.035336,-0.0518 H 1.2617393 q -0.5435514,0 -1.57888739,0.0776 -1.00945261,0.0777 -1.52712061,0.0777 -0.129417,0 -0.4141344,-0.0259 -0.2847174,0 -0.4141344,0 -1.0094526,0 -2.6918736,2.74364 -0.4141344,0.51767 -1.1129862,1.65654 -0.1035336,0.28471 -0.3364842,0.80238 -0.07765,0.18118 -0.4917846,0.75062 -0.3364842,0.44002 -0.3364842,0.7765 0,0.4659 0.4141344,0.4659 0.776502,0 2.717757,-1.47535 1.9671384,-1.50124 2.0447886,-1.50124 0.129417,0 0.129417,0.12942 0,0.1553 -0.647085,0.72473 -0.8800356,0.77651 -2.717757,2.14833 -0.3623676,0.18118 -1.0612194,0.54355 -0.129417,0.10353 -0.6729684,0.23295 -0.5435514,0.1553 -0.7247352,0.1553 -0.4141344,0 -0.8282688,-0.3106 -0.388251,-0.3106 -0.388251,-0.72474 0,-0.3106 0.5435514,-1.21652 0.258834,-0.44002 0.5435514,-0.88003 -0.025883,-0.0259 -0.1035336,-0.0259 -0.129417,0 -0.647085,0.41414 -0.4917846,0.38825 -0.6988518,0.38825 -0.258834,0 -0.258834,-0.10353 0,-0.0777 0.2847174,-0.28472 0.647085,-0.6212 2.0447886,-1.78596 1.0871028,-0.82827 2.5624566,-3.05424 0.1811838,-0.28472 0.1811838,-0.38825 0,-0.12942 -0.1553004,-0.12942 -0.129417,-0.0259 -0.4141344,-0.0777 -0.2847174,-0.0518 -0.4659012,-0.0518 -0.1553004,0 -0.4917846,0.0518 -0.3364842,0.0518 -0.4917846,0.0518 -0.129417,0 -0.388251,0 -0.2329506,-0.0259 -0.388251,-0.0259 h -0.776502 q -1.3459368,0 -1.5271205,-0.0777 -0.181184,-0.0776 -0.181184,-0.23295 0,-0.20707 0.2329507,-0.25884 0.258834,-0.0518 1.8894882,-0.0518 0.2847174,0 0.8282688,-0.0518 0.5435514,-0.0518 0.8282688,-0.0518 0.2070672,0 0.6729684,0 0.4659012,0.0259 0.6988518,0.0259 0.6212016,0 0.8282688,-0.18119 0.776502,-0.64708 1.2682866,-1.63065 0.4659012,-0.90592 1.553004,-2.12244 0.2847174,-0.36237 0.56943481,-0.72474 0.4141344,-0.4659 0.7247352,-0.51766 0.2329506,-0.0259 0.38825099,-0.0259 0.4141344,0 0.4141344,0.25884 0,0.20706 -0.388251,0.82827 -0.38825099,0.6212 -0.62120159,0.80238 -0.4917846,0.38825 -1.06121941,1.26829 -0.2847174,0.41413 -1.0871028,1.34593 -0.129417,0.1553 -0.129417,0.25884 0,0.33648 0.6729684,0.38825 0.2070672,0.0259 1.73418781,0.0777 1.86360479,0.0518 1.81183799,0.0518 h 0.2070672 q 0.8541522,-0.0518 2.58834,-0.12942 h 0.2329506 q 0.3364842,0 0.9835692,0.0777 0.647085,0.0518 0.9576858,0.0518 0.1811838,0 0.517668,-0.0259 0.3623676,-0.0259 0.517668,-0.0259 0.3623676,0 0.3623676,0.20707 z m -3.4942666,4.81431 q 0,0.25883 -1.1388696,1.13887 -1.035336,0.80238 -1.423587,0.9318 -0.1811838,0.0518 -0.388251,0.0518 -0.4659012,0 -0.82826876,-0.23295 -0.3364842,-0.23295 -0.2847174,-0.23295 -0.1553004,0 -0.4400178,0.41413 -0.36236759,0.59532 -1.29417004,1.21652 -0.9318024,0.6212 -1.6047708,0.6212 -1.6565375,0 -1.6565375,-1.37182 0,-0.59532 1.5530039,-2.3295 0.9835692,-1.08711 2.14832225,-1.63066 0.3623676,-0.20707 0.75061859,-0.41413 0.4141344,-0.23295 0.7247352,-0.23295 0.3364842,0 0.51766796,0.23295 0.5953182,0.82827 0.5953182,0.98357 0,0.0518 -0.025883,0.20706 -0.025883,0.12942 -0.025883,0.20707 0,0.0777 0.025883,0.23295 0.025883,0.1553 0.025883,0.23295 0,0.33649 -0.2329506,0.59532 -0.2070672,0.25883 -0.2070672,0.36237 0,0.41413 0.5435514,0.41413 0.4917846,0 1.423587,-0.75062 0.9576858,-0.7765 1.0871028,-0.7765 0.1553004,0 0.1553004,0.12942 z m -4.06369376,-0.88004 q 0,-0.20706 -0.3364842,-0.20706 -0.129417,0 -0.36236759,0.0777 -0.4141344,0.1553 -1.29417005,1.3977 -0.8800356,1.2424 -0.8800356,1.78595 0,0.56944 0.517668,0.56944 0.4659012,0 1.16475305,-0.69885 0.59531819,-0.59532 0.85415219,-1.11299 0.1035336,-0.23295 0.1035336,-0.51767 0,-0.0777 -0.0258834,-0.20706 -0.0258834,-0.1553 -0.0258834,-0.23295 0,-0.31061 0.129417,-0.56944 0.1553004,-0.25883 0.1553004,-0.28472 z m 15.34886806,0.88004 q 0,0.1553 -0.647085,0.72473 -1.630655,1.42359 -2.691874,2.04479 -1.604771,0.9318 -3.1836582,0.9318 -1.3200534,0 -1.3200534,-1.32005 0,-0.41413 0.5953182,-1.11298 0.5953182,-0.72474 1.2424032,-1.44948 0.6470852,-0.75061 1.4753542,-1.21651 1.190636,-0.67297 1.553004,-0.67297 0.440017,0 0.440017,0.51766 0,1.08711 -1.216519,1.99303 -1.190637,0.88003 -1.993022,1.13887 -0.181184,0.0777 -0.2070674,0.10353 0,0 -0.051767,0.18118 -0.2070672,0.51767 -0.2070672,0.62121 0,0.41413 0.7247354,0.41413 0.802385,0 1.941255,-0.59532 0.672968,-0.36237 3.080124,-2.27774 0.181184,-0.1553 0.310601,-0.1553 0.155301,0 0.155301,0.12942 z m -3.597793,-0.85415 q 0,-0.0518 -0.02588,-0.0776 -0.05177,0 -0.103534,0 -0.336484,0 -1.035336,0.64708 -0.698852,0.6212 -0.698852,0.9318 0,0.0776 0.103534,0.0776 0.207067,0 0.776502,-0.38825 0.595318,-0.38825 0.750618,-0.59532 0.232951,-0.38825 0.232951,-0.59531 z m 10.741608,0.85415 q 0,0.12942 -0.232951,0.33648 -0.569434,0.56944 -1.941255,1.68242 -1.578887,1.26829 -2.070672,1.42359 -0.491784,0.1553 -0.776502,0.1553 -0.465901,0 -0.698851,-0.41413 -0.207068,-0.38825 -0.284718,-0.38825 -0.1553,0 -0.931802,0.49178 -0.517668,0.36237 -1.21652,0.36237 -1.190636,0 -1.190636,-0.64709 0,-1.03533 0.362367,-1.47535 0.181184,-0.25883 0.595318,-0.72474 0.543552,-0.54355 1.760072,-1.52712 1.837721,-1.19063 2.407156,-1.19063 0.543551,0 0.698852,0.38825 0.181183,0.38825 0.3106,0.38825 0.181184,0 0.388251,-0.23295 0.232951,-0.25884 0.543552,-0.25884 0.414134,0 0.414134,0.28472 0,0.20707 -1.242403,1.65654 -1.21652,1.44947 -1.21652,1.8636 0,0.36237 0.232951,0.36237 0.517668,0 2.148322,-1.32005 1.656538,-1.34594 1.811838,-1.34594 0.129417,0 0.129417,0.12942 z m -4.011927,-0.85415 q 0,-0.33649 -0.310601,-0.33649 -0.802385,0 -1.993022,1.21652 -1.190636,1.19064 -1.190636,2.04479 0,0.44002 0.414134,0.44002 0.362368,0 1.035336,-0.4659 0.672969,-0.4659 0.957686,-0.80239 1.087103,-1.37182 1.087103,-2.09655 z m 9.887459,0.85415 q 0,0.1553 -0.647085,0.72473 -2.018905,1.78596 -3.986044,2.61423 -1.164753,0.49178 -1.52712,0.49178 -0.854152,0 -1.164753,-0.12942 -0.776502,-0.25883 -0.776502,-0.80238 0,-1.76007 2.484806,-3.59779 2.018905,-1.50124 2.536573,-1.50124 1.320054,0 1.320054,1.00945 0,0.28472 -0.414135,0.75062 -0.388251,0.4659 -0.672968,0.4659 -0.181184,0 -0.336484,-0.18118 -0.155301,-0.18119 -0.155301,-0.38825 0,-0.0777 0.05177,-0.28472 0.07765,-0.20707 0.07765,-0.3106 0,-0.20707 -0.129417,-0.20707 -0.284717,0 -0.983569,0.38825 -0.698852,0.38825 -0.776502,0.6212 -0.02588,0.12942 -0.284717,0.54356 -0.232951,0.38825 -0.232951,0.6212 0,0.20706 -0.284717,0.75062 -0.284718,0.51766 -0.284718,0.82826 0,0.62121 0.595319,0.62121 0.3106,0 0.828268,-0.25884 0.310601,-0.12941 0.957686,-0.44002 0.181184,-0.0776 1.035336,-0.59531 0.258834,-0.1553 0.802386,-0.49179 0.258834,-0.18118 1.52712,-1.21652 0.155301,-0.1553 0.310601,-0.1553 0.129417,0 0.129417,0.12942 z m 10.068631,-11.67341 q 0,0.69885 -0.465901,1.50123 -0.284717,0.64709 -1.320053,2.22598 -1.553004,1.88948 -2.58834,2.89894 -0.491785,0.56943 -1.553004,1.65653 -0.388251,0.3106 -1.112986,0.95769 -0.724736,0.64708 -0.724736,0.85415 0,0.10353 0.05177,0.10353 0.103534,0 0.828269,-0.4659 0.750619,-0.4659 1.13887,-0.4659 0.07765,0 0.207067,0 0.129417,0 0.207067,0 0.440018,0 0.698852,0.23295 0.258834,0.23295 0.491784,0.44002 0.258834,0.28472 0.258834,0.54355 0,0.38825 -0.569434,1.11299 -0.414135,0.54355 -0.828269,1.06122 -0.02588,0.0259 -0.672969,0.85415 -0.517668,0.69885 -0.517668,0.7765 0,0.28472 0.465902,0.28472 0.724735,0 2.433039,-1.29417 1.06122,-0.7765 2.070672,-1.57889 0.181184,-0.1553 0.310601,-0.1553 0.129417,0 0.129417,0.12942 0,0.10353 -0.207067,0.33648 -0.05177,0.0518 -1.13887,0.98357 -0.724735,0.67297 -2.277739,1.83772 -0.880036,0.56944 -1.915372,0.56944 -0.647085,0 -0.854152,-0.12942 -0.181184,-0.12942 -0.465901,-0.69885 -0.129417,-0.28472 -0.129417,-0.51767 0,-0.33648 0.465901,-0.88003 0.491785,-0.54356 1.397704,-1.78596 0.621201,-1.03533 0.621201,-1.21652 0,-0.25883 -0.23295,-0.25883 -0.103534,0 -0.802386,0.38825 -0.672968,0.36237 -1.837721,1.16475 -0.517668,0.44002 -0.750619,0.95769 -0.23295,0.51767 -0.698851,1.50123 -0.103534,0.31061 -0.207068,0.62121 -0.103533,0.3106 -0.465901,0.54355 -0.880035,0.56943 -1.553004,0.56943 -0.388251,0 -0.388251,-0.49178 0,-0.33649 0.698852,-1.08711 0.698852,-0.7765 0.698852,-1.06121 0,-0.0777 -0.05177,-0.0777 -0.05177,0 -0.362368,0.18118 -0.284717,0.1553 -0.414134,0.1553 l -0.05177,-0.0259 q -0.05177,-0.10354 -0.05177,-0.18119 0,-0.1553 0.336485,-0.36237 1.423587,-0.9318 2.096555,-1.94125 0.543551,-0.72474 1.527121,-2.22597 0.750618,-1.39771 2.458923,-4.08958 0.905919,-1.16475 2.82129,-3.33896 1.760071,-1.73419 1.915372,-1.73419 0.02588,0 0.103533,0 0.07765,-0.0259 0.103534,-0.0259 0.207067,0 0.440018,0.23295 0.23295,0.23295 0.23295,0.41414 z m -1.397703,1.47535 q 0,-0.28472 -0.181184,-0.28472 -0.672968,0 -3.494259,3.70133 -0.181184,0.23295 -0.672968,1.06122 -1.06122,1.81184 -1.06122,2.04479 0,0.0776 0.05177,0.0776 0.232951,0 2.148322,-2.12244 0.724735,-0.7765 1.449471,-1.55301 0.854152,-0.9318 1.29417,-1.63065 0.465901,-0.69885 0.465901,-1.29417 z m 13.174636,10.19806 q 0,0.25883 -1.138869,1.13887 -1.035336,0.80238 -1.423587,0.9318 -0.181184,0.0518 -0.388251,0.0518 -0.465902,0 -0.828269,-0.23295 -0.336484,-0.23295 -0.284718,-0.23295 -0.1553,0 -0.440017,0.41413 -0.362368,0.59532 -1.29417,1.21652 -0.931803,0.6212 -1.604771,0.6212 -1.656538,0 -1.656538,-1.37182 0,-0.59532 1.553004,-2.3295 0.983569,-1.08711 2.148322,-1.63066 0.362368,-0.20707 0.750619,-0.41413 0.414134,-0.23295 0.724735,-0.23295 0.336484,0 0.517668,0.23295 0.595318,0.82827 0.595318,0.98357 0,0.0518 -0.02588,0.20706 -0.02588,0.12942 -0.02588,0.20707 0,0.0777 0.02588,0.23295 0.02588,0.1553 0.02588,0.23295 0,0.33649 -0.23295,0.59532 -0.207067,0.25883 -0.207067,0.36237 0,0.41413 0.543551,0.41413 0.491785,0 1.423587,-0.75062 0.957686,-0.7765 1.087103,-0.7765 0.1553,0 0.1553,0.12942 z m -4.063694,-0.88004 q 0,-0.20706 -0.336484,-0.20706 -0.129417,0 -0.362367,0.0777 -0.414135,0.1553 -1.29417,1.3977 -0.880036,1.2424 -0.880036,1.78595 0,0.56944 0.517668,0.56944 0.465901,0 1.164753,-0.69885 0.595318,-0.59532 0.854152,-1.11299 0.103534,-0.23295 0.103534,-0.51767 0,-0.0777 -0.02588,-0.20706 -0.02588,-0.1553 -0.02588,-0.23295 0,-0.31061 0.129417,-0.56944 0.1553,-0.25883 0.1553,-0.28472 z m 20.137291,-3.93427 q 0,0.36236 -0.569435,0.38825 -0.983569,-0.0259 -2.950707,0.0518 -0.647085,0.0259 -0.880036,0.0259 0.103534,0 -0.621201,-0.0777 -0.388251,-0.0518 -1.035336,-0.0518 h -0.672969 q -0.543551,0 -1.578887,0.0776 -1.009453,0.0777 -1.527121,0.0777 -0.129417,0 -0.414134,-0.0259 -0.284718,0 -0.414135,0 -1.009452,0 -2.691873,2.74364 -0.414135,0.51767 -1.112986,1.65654 -0.103534,0.28471 -0.336485,0.80238 -0.07765,0.18118 -0.491784,0.75062 -0.336484,0.44002 -0.336484,0.7765 0,0.4659 0.414134,0.4659 0.776502,0 2.717757,-1.47535 1.967138,-1.50124 2.044789,-1.50124 0.129417,0 0.129417,0.12942 0,0.1553 -0.647085,0.72473 -0.880036,0.77651 -2.717757,2.14833 -0.362368,0.18118 -1.06122,0.54355 -0.129417,0.10353 -0.672968,0.23295 -0.543552,0.1553 -0.724735,0.1553 -0.414135,0 -0.828269,-0.3106 -0.388251,-0.3106 -0.388251,-0.72474 0,-0.3106 0.543551,-1.21652 0.258834,-0.44002 0.543552,-0.88003 -0.02588,-0.0259 -0.103534,-0.0259 -0.129417,0 -0.647085,0.41414 -0.491785,0.38825 -0.698852,0.38825 -0.258834,0 -0.258834,-0.10353 0,-0.0777 0.284718,-0.28472 0.647085,-0.6212 2.044788,-1.78596 1.087103,-0.82827 2.562457,-3.05424 0.181184,-0.28472 0.181184,-0.38825 0,-0.12942 -0.155301,-0.12942 -0.129417,-0.0259 -0.414134,-0.0777 -0.284718,-0.0518 -0.465901,-0.0518 -0.155301,0 -0.491785,0.0518 -0.336484,0.0518 -0.491785,0.0518 -0.129417,0 -0.388251,0 -0.23295,-0.0259 -0.388251,-0.0259 h -0.776502 q -1.345936,0 -1.52712,-0.0777 -0.181184,-0.0776 -0.181184,-0.23295 0,-0.20707 0.232951,-0.25884 0.258834,-0.0518 1.889488,-0.0518 0.284717,0 0.828269,-0.0518 0.543551,-0.0518 0.828268,-0.0518 0.207068,0 0.672969,0 0.465901,0.0259 0.698852,0.0259 0.621201,0 0.828268,-0.18119 0.776502,-0.64708 1.268287,-1.63065 0.465901,-0.90592 1.553004,-2.12244 0.284717,-0.36237 0.569435,-0.72474 0.414134,-0.4659 0.724735,-0.51766 0.232951,-0.0259 0.388251,-0.0259 0.414134,0 0.414134,0.25884 0,0.20706 -0.388251,0.82827 -0.388251,0.6212 -0.621201,0.80238 -0.491785,0.38825 -1.06122,1.26829 -0.284717,0.41413 -1.087102,1.34593 -0.129417,0.1553 -0.129417,0.25884 0,0.33648 0.672968,0.38825 0.207067,0.0259 1.734188,0.0777 1.863605,0.0518 1.811838,0.0518 h 0.207067 q 0.854152,-0.0518 2.58834,-0.12942 h 0.232951 q 0.336484,0 0.983569,0.0777 0.647085,0.0518 0.957686,0.0518 0.181183,0 0.517668,-0.0259 0.362367,-0.0259 0.517668,-0.0259 0.362367,0 0.362367,0.20707 z m -0.336492,-6.8591 q 0,0.69885 -0.465901,1.50123 -0.284717,0.64709 -1.320053,2.22598 -1.553004,1.88948 -2.58834,2.89894 -0.491785,0.56943 -1.553004,1.65653 -0.388251,0.3106 -1.112986,0.95769 -0.724736,0.64708 -0.724736,0.85415 0,0.10353 0.05177,0.10353 0.103534,0 0.828269,-0.4659 0.750619,-0.4659 1.13887,-0.4659 0.07765,0 0.207067,0 0.129417,0 0.207067,0 0.440018,0 0.698852,0.23295 0.258834,0.23295 0.491784,0.44002 0.258834,0.28472 0.258834,0.54355 0,0.38825 -0.569434,1.11299 -0.414135,0.54355 -0.828269,1.06122 -0.02588,0.0259 -0.672969,0.85415 -0.517668,0.69885 -0.517668,0.7765 0,0.28472 0.465902,0.28472 0.724735,0 2.433039,-1.29417 1.06122,-0.7765 2.070672,-1.57889 0.181184,-0.1553 0.310601,-0.1553 0.129417,0 0.129417,0.12942 0,0.10353 -0.207067,0.33648 -0.05177,0.0518 -1.13887,0.98357 -0.724735,0.67297 -2.277739,1.83772 -0.880036,0.56944 -1.915372,0.56944 -0.647085,0 -0.854152,-0.12942 -0.181184,-0.12942 -0.465901,-0.69885 -0.129417,-0.28472 -0.129417,-0.51767 0,-0.33648 0.465901,-0.88003 0.491785,-0.54356 1.397704,-1.78596 0.621201,-1.03533 0.621201,-1.21652 0,-0.25883 -0.23295,-0.25883 -0.103534,0 -0.802386,0.38825 -0.672968,0.36237 -1.837721,1.16475 -0.517668,0.44002 -0.750619,0.95769 -0.23295,0.51767 -0.698851,1.50123 -0.103534,0.31061 -0.207068,0.62121 -0.103533,0.3106 -0.465901,0.54355 -0.880035,0.56943 -1.553004,0.56943 -0.388251,0 -0.388251,-0.49178 0,-0.33649 0.698852,-1.08711 0.698852,-0.7765 0.698852,-1.06121 0,-0.0777 -0.05177,-0.0777 -0.05177,0 -0.362368,0.18118 -0.284717,0.1553 -0.414134,0.1553 l -0.05177,-0.0259 q -0.05177,-0.10354 -0.05177,-0.18119 0,-0.1553 0.336485,-0.36237 1.423587,-0.9318 2.096555,-1.94125 0.543551,-0.72474 1.527121,-2.22597 0.750618,-1.39771 2.458923,-4.08958 0.905919,-1.16475 2.82129,-3.33896 1.760071,-1.73419 1.915372,-1.73419 0.02588,0 0.103533,0 0.07765,-0.0259 0.103534,-0.0259 0.207067,0 0.440018,0.23295 0.23295,0.23295 0.23295,0.41414 z m -1.397703,1.47535 q 0,-0.28472 -0.181184,-0.28472 -0.672968,0 -3.494259,3.70133 -0.181184,0.23295 -0.672968,1.06122 -1.06122,1.81184 -1.06122,2.04479 0,0.0776 0.05177,0.0776 0.232951,0 2.148322,-2.12244 0.724735,-0.7765 1.449471,-1.55301 0.854152,-0.9318 1.29417,-1.63065 0.465901,-0.69885 0.465901,-1.29417 z m 5.487276,10.19806 q 0,0.1553 -0.647085,0.72473 -1.630654,1.42359 -2.691874,2.04479 -1.60477,0.9318 -3.183658,0.9318 -1.320053,0 -1.320053,-1.32005 0,-0.41413 0.595318,-1.11298 0.595318,-0.72474 1.242403,-1.44948 0.647085,-0.75061 1.475354,-1.21651 1.190636,-0.67297 1.553004,-0.67297 0.440018,0 0.440018,0.51766 0,1.08711 -1.21652,1.99303 -1.190636,0.88003 -1.993022,1.13887 -0.181184,0.0777 -0.207067,0.10353 0,0 -0.05177,0.18118 -0.207067,0.51767 -0.207067,0.62121 0,0.41413 0.724735,0.41413 0.802386,0 1.941255,-0.59532 0.672969,-0.36237 3.080125,-2.27774 0.181184,-0.1553 0.310601,-0.1553 0.1553,0 0.1553,0.12942 z m -3.597793,-0.85415 q 0,-0.0518 -0.02588,-0.0776 -0.05177,0 -0.103534,0 -0.336484,0 -1.035336,0.64708 -0.698851,0.6212 -0.698851,0.9318 0,0.0776 0.103533,0.0776 0.207067,0 0.776502,-0.38825 0.595318,-0.38825 0.750619,-0.59532 0.23295,-0.38825 0.23295,-0.59531 z m 9.835705,0.85415 q 0,0.33648 -2.769524,2.40715 -0.672969,0.49179 -2.070672,1.29417 -0.621202,0.25884 -0.931803,0.25884 -0.465901,0 -0.931802,-0.4659 -0.440018,-0.4659 -0.440018,-0.9318 0,-0.62121 0.854152,-1.37182 0.854153,-0.75062 0.854153,-0.77651 0,-0.41413 -0.362368,-0.41413 -0.232951,0 -1.164753,0.7765 -0.905919,0.75062 -1.21652,0.75062 -0.207067,0 -0.207067,-0.12942 0,0.0259 1.320053,-1.11298 1.13887,-0.95769 1.527121,-1.60477 0.1553,-0.41414 0.336484,-0.82827 0.232951,-0.51767 0.647085,-0.51767 0.181184,0 0.440018,0.23295 0.258834,0.20707 0.258834,0.38825 0,0.23295 -0.284717,0.56943 -0.284718,0.33649 -0.284718,0.51767 0,0.28472 0.440018,0.4659 0.440018,0.1553 0.440018,0.49179 0,0.12942 -0.155301,0.23295 -0.284717,0.20707 -0.828268,0.88003 -0.543552,0.64709 -0.621202,0.93181 -0.05177,0.25883 -0.05177,0.41413 0,0.41414 0.362368,0.41414 0.905919,0 4.374294,-2.84718 0.181184,-0.1553 0.310601,-0.1553 0.155301,0 0.155301,0.12942 z m 12.838151,0 q 0,0.25883 -1.13887,1.13887 -1.035336,0.80238 -1.423587,0.9318 -0.181184,0.0518 -0.388251,0.0518 -0.465901,0 -0.828269,-0.23295 -0.336484,-0.23295 -0.284717,-0.23295 -0.155301,0 -0.440018,0.41413 -0.362368,0.59532 -1.29417,1.21652 -0.931802,0.6212 -1.604771,0.6212 -1.656537,0 -1.656537,-1.37182 0,-0.59532 1.553004,-2.3295 0.983569,-1.08711 2.148322,-1.63066 0.362367,-0.20707 0.750618,-0.41413 0.414135,-0.23295 0.724736,-0.23295 0.336484,0 0.517668,0.23295 0.595318,0.82827 0.595318,0.98357 0,0.0518 -0.02588,0.20706 -0.02588,0.12942 -0.02588,0.20707 0,0.0777 0.02588,0.23295 0.02588,0.1553 0.02588,0.23295 0,0.33649 -0.232951,0.59532 -0.207067,0.25883 -0.207067,0.36237 0,0.41413 0.543551,0.41413 0.491785,0 1.423587,-0.75062 0.957686,-0.7765 1.087103,-0.7765 0.155301,0 0.155301,0.12942 z m -4.063694,-0.88004 q 0,-0.20706 -0.336484,-0.20706 -0.129417,0 -0.362368,0.0777 -0.414134,0.1553 -1.29417,1.3977 -0.880036,1.2424 -0.880036,1.78595 0,0.56944 0.517668,0.56944 0.465902,0 1.164753,-0.69885 0.595319,-0.59532 0.854153,-1.11299 0.103533,-0.23295 0.103533,-0.51767 0,-0.0777 -0.02588,-0.20706 -0.02588,-0.1553 -0.02588,-0.23295 0,-0.31061 0.129417,-0.56944 0.155301,-0.25883 0.155301,-0.28472 z m 12.527586,0.80239 q 0,0.3106 -1.915371,1.81184 -1.785955,1.37182 -2.329506,1.65653 -0.517668,0.28472 -1.785955,0.28472 -0.595318,0 -0.595318,-0.41413 0,-0.0776 0.02588,-0.20707 0.02588,-0.12942 0.02588,-0.20707 0,-0.25883 -0.129417,-0.25883 -0.414135,0 -1.37182,0.67297 -0.698852,0.49178 -1.760072,0.49178 -1.164753,0 -1.164753,-1.11298 0,-1.21652 1.553004,-2.20009 0.284718,-0.18119 0.854153,-0.64709 0.336484,-0.38825 0.621201,-0.72473 0.310601,-0.33649 0.828269,-0.62121 0.258834,-0.1553 0.465901,-0.1553 0.440018,0 0.440018,0.54356 0,0.38825 -0.828269,1.0871 -2.303622,1.94125 -2.303622,2.84717 0,0.28472 0.3106,0.28472 0.828269,0 2.795408,-1.52712 0.23295,-0.20707 0.983569,-1.16475 0.414134,-0.3106 1.268286,-1.21652 0.336485,-0.4659 0.440018,-0.59532 0.310601,-0.3106 0.621202,-0.3106 h 0.1553 q 0.569435,-0.0259 0.569435,0.3106 0,0.4659 -0.724735,1.11298 -0.905919,0.80239 -1.009453,0.98357 -0.983569,1.68242 -0.983569,2.07068 0,0.1553 0.207067,0.1553 0.569435,0 2.536573,-1.52712 1.967139,-1.52713 2.070672,-1.52713 0.129417,0 0.129417,0.10354 z m 6.186145,0.0777 q 0,0.33648 -2.76952,2.40715 -0.67297,0.49179 -2.070674,1.29417 -0.621202,0.25884 -0.931803,0.25884 -0.465901,0 -0.931802,-0.4659 -0.440018,-0.4659 -0.440018,-0.9318 0,-0.62121 0.854152,-1.37182 0.854152,-0.75062 0.854152,-0.77651 0,-0.41413 -0.362367,-0.41413 -0.232951,0 -1.164753,0.7765 -0.905919,0.75062 -1.21652,0.75062 -0.207067,0 -0.207067,-0.12942 0,0.0259 1.320053,-1.11298 1.13887,-0.95769 1.527121,-1.60477 0.1553,-0.41414 0.336484,-0.82827 0.232951,-0.51767 0.647085,-0.51767 0.181184,0 0.440017,0.23295 0.25883,0.20707 0.25883,0.38825 0,0.23295 -0.28471,0.56943 -0.28472,0.33649 -0.28472,0.51767 0,0.28472 0.44002,0.4659 0.44002,0.1553 0.44002,0.49179 0,0.12942 -0.1553,0.23295 -0.28472,0.20707 -0.828274,0.88003 -0.543551,0.64709 -0.621201,0.93181 -0.05177,0.25883 -0.05177,0.41413 0,0.41414 0.362368,0.41414 0.905914,0 4.374294,-2.84718 0.18118,-0.1553 0.3106,-0.1553 0.1553,0 0.1553,0.12942 z m 24.38215,-11.62165 q 0,0.54355 -0.41414,1.16476 -0.33648,0.51766 -0.69885,1.03533 -0.4659,0.7765 -2.43304,2.25186 -1.03533,0.88003 -3.15777,2.61422 -0.38825,0.28472 -0.9318,0.80239 -0.56944,0.9318 -1.81184,2.69187 -1.42359,1.68242 -2.35539,2.38127 -1.03534,0.7765 -1.03534,0.80239 0,0.33648 0.72474,0.56943 0.56943,0.20707 0.98357,0.20707 0.56943,0 1.0871,-0.12942 0.98357,-0.25883 1.99302,-1.06122 0.44002,-0.3106 1.29417,-0.98357 0.28472,-0.23295 0.88004,-0.69885 0.18118,-0.1553 0.3106,-0.1553 0.12941,0 0.12941,0.12942 0,0.10353 -0.20706,0.33648 -0.51767,0.51767 -3.23543,2.69188 -0.75062,0.6212 -1.52712,0.90592 -1.00945,0.36236 -1.50124,0.36236 -0.75061,0 -1.8636,-0.56943 -1.11299,-0.56944 -1.19064,-0.56944 -0.1553,0 -0.49178,0.1553 -1.52712,0.75062 -3.67544,0.75062 -1.42359,0 -2.07068,-0.54355 -0.64708,-0.54355 -0.64708,-0.9318 0,-0.3106 0.36237,-0.7765 0.98357,-1.16476 4.42606,-1.16476 1.13887,0 1.7083,0.23295 1.32006,0.49179 1.24241,0.49179 0.56943,0 1.68242,-1.0871 0.59531,-0.59532 1.21652,-1.44947 0.90592,-1.29417 0.90592,-1.39771 0,-0.0518 -0.0777,-0.0518 -0.0518,0 -0.15531,0.0518 -0.85415,0.44002 -2.6401,1.16476 -0.80239,0.25883 -1.60477,0.51766 -1.13887,0.38825 -1.52712,0.38825 -0.28472,0 -0.28472,-0.1553 0,-0.54355 0.72473,-0.6212 1.06122,-0.12941 3.15778,-1.03533 1.8636,-0.80239 3.05424,-1.55301 0.1553,-0.0777 0.7765,-1.03533 1.68242,-2.53658 2.87306,-3.72721 0.80239,-0.80239 2.66599,-2.25186 2.27774,-1.76007 2.87306,-1.76007 0.4659,0 0.4659,1.00945 z m -1.68242,1.16476 q 0,-0.12942 -0.1553,-0.12942 -0.90592,0 -3.18366,2.14832 -0.75062,0.69885 -1.21652,1.57889 -0.12942,0.25883 -0.38825,0.72473 -0.44002,0.67297 -0.44002,0.7765 0,0.0777 0.12942,0.0777 0.33648,0 1.60477,-1.26829 0.72473,-0.56944 2.1742,-1.76007 0.41414,-0.36237 0.88004,-0.98357 0.59532,-0.7765 0.59532,-1.16475 z m -14.62412,13.01935 q 0,-0.15531 -0.88004,-0.46591 -0.75062,-0.25883 -1.0871,-0.3106 -0.3106,-0.0518 -0.6212,-0.0518 -0.64709,0 -1.50124,0.44001 -0.4659,0.23295 -0.4659,0.38826 l 0.0259,0.0776 q 0.54355,0.54355 2.17421,0.54355 1.06122,0 1.94125,-0.36237 0.41414,-0.20707 0.41414,-0.25883 z m 18.35136,-12.13932 q 0,0.51767 -0.49178,1.0871 -0.49179,0.54356 -1.03534,0.54356 -0.49178,0 -0.49178,-0.54356 0,-0.1553 0.33648,-0.82827 0.20707,-0.41413 0.3106,-0.49178 0.18118,-0.18118 0.56943,-0.18118 0.80239,0 0.80239,0.41413 z m -3.20954,9.57686 q 0,0.25883 -2.53657,2.30362 -1.26829,1.00945 -1.99303,1.29417 -0.72473,0.28472 -1.11298,0.28472 -0.3106,0 -0.6212,-0.28472 -0.28472,-0.25883 -0.28472,-0.59532 0,-0.25883 0.20707,-0.59532 0.0259,-0.0518 0.75061,-1.16475 0.18119,-0.38825 0.69886,-1.06122 0.12941,-0.10353 0.95768,-1.2424 0.67297,-0.9318 1.03534,-0.9318 0.56943,0 0.56943,0.51766 0,0.28472 -0.25883,0.56944 -0.51767,0.59532 -1.16475,1.57889 -0.80239,1.21652 -0.80239,1.65653 0,0.23296 0.41413,0.23296 0.46591,0 3.70133,-2.53658 0.1553,-0.1553 0.3106,-0.1553 0.12942,0 0.12942,0.12942 z m 8.87803,0 q 0,0.20707 -0.85416,0.90592 -0.67296,0.54355 -1.11298,0.82827 -0.59532,0.36236 -1.19064,0.36236 -0.54355,0 -1.03533,-0.33648 -0.49179,-0.36237 -0.49179,-0.36237 -0.0518,0 -1.29417,1.03534 -1.2424,1.03533 -1.60477,1.16475 -0.33648,0.1553 -0.80239,0.1553 -0.28471,0 -0.51766,-0.0777 -0.51767,-0.1553 -0.56944,-0.18118 -0.23295,-0.12942 -0.23295,-0.49179 0,-0.38825 0.3106,-1.0871 0.3106,-0.6212 0.6212,-0.95769 0.23295,-0.25883 0.62121,-0.82826 0.25883,-0.31061 0.51766,-0.72474 -0.0259,-0.0518 -0.0777,-0.0777 -0.0777,0 -1.16475,0.90592 -1.0871,0.88003 -1.37182,0.88003 -0.12942,0 -0.12942,-0.10353 0,-0.0777 0.12942,-0.23295 0.0259,-0.0259 0.56943,-0.51767 0.56944,-0.51767 1.32006,-1.16475 0.12942,-0.0518 0.44002,-0.41413 0.33648,-0.36237 0.75061,-0.44002 0.44002,-0.10354 0.67297,-0.10354 0.64709,0 0.64709,0.49179 0,0.20707 -0.88004,1.83772 -0.0518,0.0776 -0.75062,1.00945 -0.54355,0.69885 -0.54355,1.03534 0,0.28472 0.28472,0.28472 0.3106,0 0.98357,-0.49179 0.54355,-0.38825 0.85415,-0.69885 0.33649,-0.3106 0.9318,-0.90592 0.0518,-0.0776 0.10354,-0.59532 0.0777,-0.51767 0.3106,-0.88003 0.75062,-1.06122 1.42358,-1.06122 0.62121,0 0.62121,0.54355 0,0.3106 -0.51767,0.82827 -0.51767,0.51767 -0.51767,1.06122 0,0.3106 0.20707,0.59532 0.20706,0.25883 0.51767,0.25883 0.51766,0 1.553,-0.7765 1.03534,-0.80239 1.13887,-0.80239 0.12942,0 0.12942,0.12942 z m 5.17667,0 q 0,0.1553 -0.64709,0.72473 -1.63065,1.42359 -2.69187,2.04479 -1.60477,0.9318 -3.18366,0.9318 -1.32005,0 -1.32005,-1.32005 0,-0.41413 0.59532,-1.11298 0.59532,-0.72474 1.2424,-1.44948 0.64709,-0.75061 1.47535,-1.21651 1.19064,-0.67297 1.55301,-0.67297 0.44002,0 0.44002,0.51766 0,1.08711 -1.21652,1.99303 -1.19064,0.88003 -1.99302,1.13887 -0.18119,0.0777 -0.20707,0.10353 0,0 -0.0518,0.18118 -0.20707,0.51767 -0.20707,0.62121 0,0.41413 0.72474,0.41413 0.80238,0 1.94125,-0.59532 0.67297,-0.36237 3.08013,-2.27774 0.18118,-0.1553 0.3106,-0.1553 0.1553,0 0.1553,0.12942 z m -3.59779,-0.85415 q 0,-0.0518 -0.0259,-0.0776 -0.0518,0 -0.10353,0 -0.33648,0 -1.03534,0.64708 -0.69885,0.6212 -0.69885,0.9318 0,0.0776 0.10354,0.0776 0.20706,0 0.7765,-0.38825 0.59532,-0.38825 0.75062,-0.59532 0.23295,-0.38825 0.23295,-0.59531 z m 7.66147,-1.03534 q 0,0.38825 -0.54356,0.54355 -0.67296,0.18119 -0.88003,0.49179 -0.0777,0.12941 -0.0777,0.51766 0,0.0776 0.10353,0.25884 0.12942,0.1553 0.1553,0.20707 0.18119,0.38825 0.18119,0.9318 0,0.67297 -0.49179,1.29417 -0.85415,1.0871 -1.78595,1.44947 -1.00946,0.38825 -1.39771,0.38825 -0.90592,0 -1.52712,-0.4659 -0.59532,-0.4659 -0.59532,-1.16475 0,-0.54356 0.18119,-0.80239 0.10353,-0.1553 0.41413,-0.51767 0.28472,-0.23295 0.44002,-0.25883 0.18118,-0.0259 0.44002,-0.25884 0.56943,-0.44001 1.7083,-1.37182 0.41414,-0.28471 0.88004,-0.72473 0.0518,-0.10354 0.33648,-0.38825 0.6212,-0.54355 1.73419,-0.54355 0.72474,0 0.72474,0.41413 z m -2.8213,3.49426 q 0,-0.25883 -0.12941,-0.75062 -0.12942,-0.49178 -0.12942,-0.75062 0,0.0518 0.0777,-0.67297 0,-0.0259 -0.0259,-0.0259 v 0 q -0.12942,0.0259 -1.06122,0.80239 -0.90592,0.75061 -0.90592,0.82826 0,0.0518 0.0518,0.0776 0.38825,0.23296 0.38825,0.46591 0,0.36236 -0.25884,0.69885 -0.23295,0.3106 -0.23295,0.54355 0,0.51767 0.51767,0.51767 0.7765,0 1.2424,-0.49179 0.4659,-0.49178 0.4659,-1.2424 z m 6.18612,1.21652 q 0,0.18118 -0.33648,0.69885 -0.36237,0.59532 -0.41414,0.75062 -0.23295,0.59532 -0.9318,1.13887 -0.4659,0.41413 -0.9318,0.82827 -0.69885,0.59532 -1.00945,0.59532 -0.1553,0 -0.1553,-0.1553 0,-0.3106 0.3106,-0.44002 0.36237,-0.4659 0.90592,-1.13887 0.23295,-0.28472 0.67297,-1.47536 0.36236,-1.06121 0.67296,-1.19063 0.0776,-0.0259 0.23295,-0.18119 0.18119,-0.18118 0.33649,-0.18118 0.25883,0 0.44002,0.25883 0.20706,0.23296 0.20706,0.49179 z m 17.44541,-2.82129 q 0,0.25883 -1.13887,1.13887 -1.03533,0.80238 -1.42358,0.9318 -0.18119,0.0518 -0.38825,0.0518 -0.4659,0 -0.82827,-0.23295 -0.33649,-0.23295 -0.28472,-0.23295 -0.1553,0 -0.44002,0.41413 -0.36236,0.59532 -1.29417,1.21652 -0.9318,0.6212 -1.60477,0.6212 -1.65654,0 -1.65654,-1.37182 0,-0.59532 1.55301,-2.3295 0.98357,-1.08711 2.14832,-1.63066 0.36237,-0.20707 0.75062,-0.41413 0.41413,-0.23295 0.72473,-0.23295 0.33649,0 0.51767,0.23295 0.59532,0.82827 0.59532,0.98357 0,0.0518 -0.0259,0.20706 -0.0259,0.12942 -0.0259,0.20707 0,0.0777 0.0259,0.23295 0.0259,0.1553 0.0259,0.23295 0,0.33649 -0.23295,0.59532 -0.20707,0.25883 -0.20707,0.36237 0,0.41413 0.54355,0.41413 0.49179,0 1.42359,-0.75062 0.95769,-0.7765 1.0871,-0.7765 0.1553,0 0.1553,0.12942 z m -4.06369,-0.88004 q 0,-0.20706 -0.33648,-0.20706 -0.12942,0 -0.36237,0.0777 -0.41414,0.1553 -1.29417,1.3977 -0.88004,1.2424 -0.88004,1.78595 0,0.56944 0.51767,0.56944 0.4659,0 1.16475,-0.69885 0.59532,-0.59532 0.85416,-1.11299 0.10353,-0.23295 0.10353,-0.51767 0,-0.0777 -0.0259,-0.20706 -0.0259,-0.1553 -0.0259,-0.23295 0,-0.31061 0.12942,-0.56944 0.1553,-0.25883 0.1553,-0.28472 z m 12.52759,0.80239 q 0,0.3106 -1.91537,1.81184 -1.78596,1.37182 -2.32951,1.65653 -0.51767,0.28472 -1.78596,0.28472 -0.59531,0 -0.59531,-0.41413 0,-0.0776 0.0259,-0.20707 0.0259,-0.12942 0.0259,-0.20707 0,-0.25883 -0.12941,-0.25883 -0.41414,0 -1.37182,0.67297 -0.69886,0.49178 -1.76008,0.49178 -1.16475,0 -1.16475,-1.11298 0,-1.21652 1.55301,-2.20009 0.28471,-0.18119 0.85415,-0.64709 0.33648,-0.38825 0.6212,-0.72473 0.3106,-0.33649 0.82827,-0.62121 0.25883,-0.1553 0.4659,-0.1553 0.44002,0 0.44002,0.54356 0,0.38825 -0.82827,1.0871 -2.30362,1.94125 -2.30362,2.84717 0,0.28472 0.3106,0.28472 0.82827,0 2.7954,-1.52712 0.23295,-0.20707 0.98357,-1.16475 0.41414,-0.3106 1.26829,-1.21652 0.33648,-0.4659 0.44002,-0.59532 0.3106,-0.3106 0.6212,-0.3106 h 0.1553 q 0.56943,-0.0259 0.56943,0.3106 0,0.4659 -0.72473,1.11298 -0.90592,0.80239 -1.00945,0.98357 -0.98357,1.68242 -0.98357,2.07068 0,0.1553 0.20706,0.1553 0.56944,0 2.53658,-1.52712 1.96714,-1.52713 2.07067,-1.52713 0.12942,0 0.12942,0.10354 z m 6.18611,0.0777 q 0,0.33648 -2.76952,2.40715 -0.67297,0.49179 -2.07067,1.29417 -0.62121,0.25884 -0.93181,0.25884 -0.4659,0 -0.9318,-0.4659 -0.44002,-0.4659 -0.44002,-0.9318 0,-0.62121 0.85416,-1.37182 0.85415,-0.75062 0.85415,-0.77651 0,-0.41413 -0.36237,-0.41413 -0.23295,0 -1.16475,0.7765 -0.90592,0.75062 -1.21652,0.75062 -0.20707,0 -0.20707,-0.12942 0,0.0259 1.32005,-1.11298 1.13887,-0.95769 1.52712,-1.60477 0.15531,-0.41414 0.33649,-0.82827 0.23295,-0.51767 0.64708,-0.51767 0.18119,0 0.44002,0.23295 0.25884,0.20707 0.25884,0.38825 0,0.23295 -0.28472,0.56943 -0.28472,0.33649 -0.28472,0.51767 0,0.28472 0.44002,0.4659 0.44002,0.1553 0.44002,0.49179 0,0.12942 -0.1553,0.23295 -0.28472,0.20707 -0.82827,0.88003 -0.54355,0.64709 -0.6212,0.93181 -0.0518,0.25883 -0.0518,0.41413 0,0.41414 0.36237,0.41414 0.90592,0 4.37429,-2.84718 0.18118,-0.1553 0.3106,-0.1553 0.1553,0 0.1553,0.12942 z m 46.43484,-9.86158 q 0.0518,1.11299 -2.35539,1.94126 -1.78596,0.6212 -3.36484,0.72473 -0.49179,0.0259 -1.24241,0.0259 -3.36484,0 -5.79788,-0.44002 -0.9318,-0.18118 -2.58834,-0.6212 -1.16475,-0.28472 -1.2424,-0.28472 -0.1553,0 -0.41414,0.1553 -1.76007,1.03534 -2.89894,2.09656 -0.72473,0.6212 -1.96714,1.99302 -0.10353,0.12941 -0.20706,0.12941 -0.1553,0 -0.1553,-0.18118 0,-0.28472 0.9318,-1.34594 0.72473,-0.82826 1.21652,-1.26828 0.67297,-0.59532 1.553,-1.24241 0.3106,-0.18118 0.85415,-0.56943 0.0259,-0.0259 0.0259,-0.0776 0,-0.0777 -0.3106,-0.20707 -3.83075,-1.57889 -4.32253,-1.73419 -1.96714,-0.6212 -4.65901,-0.6212 -0.54355,0 -1.55301,0.0518 -1.00945,0.0518 -1.00945,0.23295 0,-0.0518 0.20707,0.44002 0.23295,0.4659 0.23295,0.90592 0,0.36236 -0.12942,0.82827 -0.56943,1.88948 -2.38127,3.28719 -2.95071,2.25185 -5.4614,2.25185 -1.91537,0 -1.91537,-1.68242 0,-1.76007 1.63065,-3.23542 1.50124,-1.37182 2.35539,-1.83772 1.03534,-0.54356 1.03534,-0.64709 0,-0.0259 -0.0518,-0.0259 -0.1553,0 -0.4659,0.10353 -0.28472,0.10353 -0.44002,0.10353 -0.20706,0 -0.20706,-0.1553 0,-0.4659 1.81183,-0.80238 1.39771,-0.25883 2.25186,-0.25883 0.12942,0 0.38825,0.0259 0.25884,0.0259 0.38825,0.0259 0.12942,0 0.54355,-0.0777 1.55301,-0.33648 2.35539,-0.33648 3.88251,0 7.66149,1.57888 2.56246,1.08711 3.05424,1.08711 0.20707,0 0.88004,-0.36237 2.66599,-1.3977 5.20256,-1.94125 3.31308,-0.69886 5.33198,-0.69886 1.91537,0 3.23543,0.44002 1.91537,0.67297 1.99302,2.14832 z m -24.07156,-0.59531 q 0,0.23295 -0.38826,0.56943 -1.63065,1.47535 -3.13189,3.49426 -1.34593,1.8636 -1.81184,3.00247 -0.23295,0.59532 -0.23295,0.6212 0,0.10354 0.0777,0.10354 0.25884,0 1.81184,-0.75062 1.55301,-0.7765 1.60477,-0.7765 0.18119,0 0.41414,0.18118 0.25883,0.18119 0.25883,0.36237 0,0.10353 -0.12942,0.25883 -0.0518,0.0518 -0.67296,0.75062 -0.51767,0.54355 -1.52712,1.70831 -0.49179,0.59531 -2.27774,2.14832 -0.62121,0.59532 -1.21652,1.19063 -0.88004,0.82827 -1.34594,0.93181 -0.4659,0.12941 -0.69885,0.12941 -0.20707,0 -0.20707,-0.0776 0,-0.10353 1.11299,-0.85415 1.29417,-0.88003 2.27774,-2.07067 0.67296,-0.9318 1.88948,-2.32951 0.41414,-0.36236 0.41414,-0.51766 0,-0.0777 -0.10353,-0.0777 -0.10354,0 -0.82827,0.28471 -1.60477,0.64709 -1.99303,1.00946 -0.12941,0.12941 -1.65653,2.27773 -1.52712,2.14833 -3.5978,2.92483 -2.3295,0.85415 -3.88251,0.85415 -0.49178,0 -0.88003,-0.4659 -0.38825,-0.44002 -0.38825,-0.9318 0,-0.56944 0.59532,-0.95769 0.0777,-0.0518 0.9318,-0.72473 0.88003,-0.69886 1.7083,-1.11299 2.30363,-1.21652 3.72721,-1.60477 0.36237,-0.0777 0.72474,-0.18118 0.4659,-0.12942 0.6212,-0.36237 0.85415,-1.16475 2.14832,-2.64011 1.06122,-1.26829 2.09656,-2.53657 1.26828,-1.55301 2.20009,-2.38127 1.7083,-1.60478 2.20008,-1.60478 0.15531,0 0.15531,0.15531 z m 23.29506,0.33648 q 0,-1.00945 -1.86361,-1.47535 -1.2424,-0.33649 -2.76952,-0.33649 -2.25186,0 -5.04727,0.67297 -3.00247,0.72474 -4.73666,1.81184 -0.18118,0.12941 -0.18118,0.20707 0,0.10353 0.36237,0.20706 4.01192,1.08711 7.29911,1.08711 1.29417,0 2.64011,-0.0777 1.26829,-0.0777 2.53657,-0.51766 1.76008,-0.6212 1.76008,-1.57889 z m -29.45531,0.3106 q 0,-1.11299 -1.16476,-1.11299 -1.19063,0 -2.87305,1.11299 -0.98357,0.6212 -2.22598,2.01891 -0.41413,0.44001 -0.9318,1.73418 -0.1553,0.41414 -0.1553,0.72474 0,0.88003 1.11299,0.88003 0.67296,0 1.32005,-0.23295 1.50124,-0.54355 1.91537,-0.75062 0.80239,-0.44001 1.65654,-1.32005 1.34594,-1.37182 1.34594,-3.05424 z m -3.31308,9.49921 -0.0259,-0.0777 q -0.0259,0 -0.10354,0 -0.4659,0 -2.3295,0.80238 -1.68242,0.72474 -3.23543,1.96714 -0.59532,0.49179 -0.59532,1.00945 0,0.46591 0.64709,0.46591 0.49178,0 1.42359,-0.25884 1.32005,-0.36237 3.18365,-2.40715 1.00946,-1.11299 1.03534,-1.50124 z m 14.28765,0.3106 q 0,0.25883 -1.13887,1.13887 -1.03534,0.80238 -1.42359,0.9318 -0.18118,0.0518 -0.38825,0.0518 -0.4659,0 -0.82827,-0.23295 -0.33648,-0.23295 -0.28471,-0.23295 -0.1553,0 -0.44002,0.41413 -0.36237,0.59532 -1.29417,1.21652 -0.9318,0.6212 -1.60477,0.6212 -1.65654,0 -1.65654,-1.37182 0,-0.59532 1.553,-2.3295 0.98357,-1.08711 2.14833,-1.63066 0.36236,-0.20707 0.75062,-0.41413 0.41413,-0.23295 0.72473,-0.23295 0.33648,0 0.51767,0.23295 0.59532,0.82827 0.59532,0.98357 0,0.0518 -0.0259,0.20706 -0.0259,0.12942 -0.0259,0.20707 0,0.0777 0.0259,0.23295 0.0259,0.1553 0.0259,0.23295 0,0.33649 -0.23295,0.59532 -0.20707,0.25883 -0.20707,0.36237 0,0.41413 0.54355,0.41413 0.49178,0 1.42359,-0.75062 0.95768,-0.7765 1.0871,-0.7765 0.1553,0 0.1553,0.12942 z m -4.06369,-0.88004 q 0,-0.20706 -0.33649,-0.20706 -0.12941,0 -0.36237,0.0777 -0.41413,0.1553 -1.29417,1.3977 -0.88003,1.2424 -0.88003,1.78595 0,0.56944 0.51767,0.56944 0.4659,0 1.16475,-0.69885 0.59532,-0.59532 0.85415,-1.11299 0.10354,-0.23295 0.10354,-0.51767 0,-0.0777 -0.0259,-0.20706 -0.0259,-0.1553 -0.0259,-0.23295 0,-0.31061 0.12942,-0.56944 0.1553,-0.25883 0.1553,-0.28472 z m 10.35338,0.88004 q 0,0.33648 -2.76953,2.40715 -0.67296,0.49179 -2.07067,1.29417 -0.6212,0.25884 -0.9318,0.25884 -0.4659,0 -0.9318,-0.4659 -0.44002,-0.4659 -0.44002,-0.9318 0,-0.62121 0.85415,-1.37182 0.85415,-0.75062 0.85415,-0.77651 0,-0.41413 -0.36236,-0.41413 -0.23295,0 -1.16476,0.7765 -0.90592,0.75062 -1.21652,0.75062 -0.20706,0 -0.20706,-0.12942 0,0.0259 1.32005,-1.11298 1.13887,-0.95769 1.52712,-1.60477 0.1553,-0.41414 0.33648,-0.82827 0.23295,-0.51767 0.64709,-0.51767 0.18118,0 0.44002,0.23295 0.25883,0.20707 0.25883,0.38825 0,0.23295 -0.28472,0.56943 -0.28471,0.33649 -0.28471,0.51767 0,0.28472 0.44001,0.4659 0.44002,0.1553 0.44002,0.49179 0,0.12942 -0.1553,0.23295 -0.28472,0.20707 -0.82827,0.88003 -0.54355,0.64709 -0.6212,0.93181 -0.0518,0.25883 -0.0518,0.41413 0,0.41414 0.36237,0.41414 0.90592,0 4.3743,-2.84718 0.18118,-0.1553 0.3106,-0.1553 0.1553,0 0.1553,0.12942 z m 15.97005,-4.81431 q 0,0.36236 -0.56944,0.38825 -0.98356,-0.0259 -2.9507,0.0518 -0.64709,0.0259 -0.88004,0.0259 0.10353,0 -0.6212,-0.0777 -0.38825,-0.0518 -1.03534,-0.0518 h -0.67296 q -0.54356,0 -1.57889,0.0776 -1.00945,0.0777 -1.52712,0.0777 -0.12942,0 -0.41414,-0.0259 -0.28471,0 -0.41413,0 -1.00945,0 -2.69188,2.74364 -0.41413,0.51767 -1.11298,1.65654 -0.10353,0.28471 -0.33649,0.80238 -0.0776,0.18118 -0.49178,0.75062 -0.33648,0.44002 -0.33648,0.7765 0,0.4659 0.41413,0.4659 0.7765,0 2.71776,-1.47535 1.96714,-1.50124 2.04479,-1.50124 0.12941,0 0.12941,0.12942 0,0.1553 -0.64708,0.72473 -0.88004,0.77651 -2.71776,2.14833 -0.36237,0.18118 -1.06122,0.54355 -0.12942,0.10353 -0.67297,0.23295 -0.54355,0.1553 -0.72473,0.1553 -0.41414,0 -0.82827,-0.3106 -0.38825,-0.3106 -0.38825,-0.72474 0,-0.3106 0.54355,-1.21652 0.25883,-0.44002 0.54355,-0.88003 -0.0259,-0.0259 -0.10353,-0.0259 -0.12942,0 -0.64709,0.41414 -0.49178,0.38825 -0.69885,0.38825 -0.25883,0 -0.25883,-0.10353 0,-0.0777 0.28471,-0.28472 0.64709,-0.6212 2.04479,-1.78596 1.08711,-0.82827 2.56246,-3.05424 0.18118,-0.28472 0.18118,-0.38825 0,-0.12942 -0.1553,-0.12942 -0.12941,-0.0259 -0.41413,-0.0777 -0.28472,-0.0518 -0.4659,-0.0518 -0.1553,0 -0.49179,0.0518 -0.33648,0.0518 -0.49178,0.0518 -0.12942,0 -0.38825,0 -0.23295,-0.0259 -0.38825,-0.0259 h -0.77651 q -1.34593,0 -1.52712,-0.0777 -0.18118,-0.0776 -0.18118,-0.23295 0,-0.20707 0.23295,-0.25884 0.25883,-0.0518 1.88949,-0.0518 0.28472,0 0.82827,-0.0518 0.54355,-0.0518 0.82827,-0.0518 0.20706,0 0.67296,0 0.46591,0.0259 0.69886,0.0259 0.6212,0 0.82826,-0.18119 0.77651,-0.64708 1.26829,-1.63065 0.4659,-0.90592 1.55301,-2.12244 0.28471,-0.36237 0.56943,-0.72474 0.41413,-0.4659 0.72474,-0.51766 0.23295,-0.0259 0.38825,-0.0259 0.41413,0 0.41413,0.25884 0,0.20706 -0.38825,0.82827 -0.38825,0.6212 -0.6212,0.80238 -0.49179,0.38825 -1.06122,1.26829 -0.28472,0.41413 -1.0871,1.34593 -0.12942,0.1553 -0.12942,0.25884 0,0.33648 0.67297,0.38825 0.20706,0.0259 1.73418,0.0777 1.86361,0.0518 1.81184,0.0518 h 0.20707 q 0.85415,-0.0518 2.58834,-0.12942 h 0.23295 q 0.33648,0 0.98357,0.0777 0.64708,0.0518 0.95769,0.0518 0.18118,0 0.51766,-0.0259 0.36237,-0.0259 0.51767,-0.0259 0.36237,0 0.36237,0.20707 z m -1.94126,4.73666 q 0,0.3106 -1.91537,1.81184 -1.78596,1.37182 -2.32951,1.65653 -0.51767,0.28472 -1.78596,0.28472 -0.59531,0 -0.59531,-0.41413 0,-0.0776 0.0259,-0.20707 0.0259,-0.12942 0.0259,-0.20707 0,-0.25883 -0.12941,-0.25883 -0.41414,0 -1.37182,0.67297 -0.69886,0.49178 -1.76008,0.49178 -1.16475,0 -1.16475,-1.11298 0,-1.21652 1.55301,-2.20009 0.28471,-0.18119 0.85415,-0.64709 0.33648,-0.38825 0.6212,-0.72473 0.3106,-0.33649 0.82827,-0.62121 0.25883,-0.1553 0.4659,-0.1553 0.44002,0 0.44002,0.54356 0,0.38825 -0.82827,1.0871 -2.30362,1.94125 -2.30362,2.84717 0,0.28472 0.3106,0.28472 0.82827,0 2.7954,-1.52712 0.23295,-0.20707 0.98357,-1.16475 0.41414,-0.3106 1.26829,-1.21652 0.33648,-0.4659 0.44002,-0.59532 0.3106,-0.3106 0.6212,-0.3106 h 0.1553 q 0.56943,-0.0259 0.56943,0.3106 0,0.4659 -0.72473,1.11298 -0.90592,0.80239 -1.00945,0.98357 -0.98357,1.68242 -0.98357,2.07068 0,0.1553 0.20706,0.1553 0.56944,0 2.53658,-1.52712 1.96714,-1.52713 2.07067,-1.52713 0.12942,0 0.12942,0.10354 z m 9.2145,0.0777 q 0,0.3106 -2.69187,2.43304 -0.88004,0.67297 -1.50124,0.90592 -1.3977,0.49178 -1.76007,0.49178 -0.44002,0 -0.95769,-0.72473 -0.12941,-0.12942 -0.12941,-0.3106 0,-0.51767 1.34593,-1.88949 1.37182,-1.37182 1.37182,-1.57889 0,-0.20707 -0.4659,-0.20707 -0.41413,0 -1.03533,0.41414 -0.46591,0.3106 -0.95769,0.64708 -0.7765,0.4659 -1.42359,1.37182 -0.49178,0.59532 -1.32005,1.86361 -0.1553,0.28471 -0.49179,0.28471 -0.9318,0 -0.9318,-0.4659 0,-0.20706 0.23295,-0.49178 0.54355,-0.64709 1.52712,-2.01891 0.0518,-0.0776 0.4659,-0.64708 0.36237,-0.49179 0.36237,-0.56944 0,-0.0518 -0.0518,-0.0777 -0.0259,0 -1.08711,0.88004 -1.06122,0.88004 -1.19063,0.88004 -0.12942,0 -0.12942,-0.20707 0,-0.10354 0.28472,-0.33649 0.3106,-0.25883 1.65653,-1.47535 0.25884,-0.33648 0.88004,-0.85415 0.25883,-0.1553 0.4659,-0.1553 0.23295,0 0.44002,0.25883 0.20707,0.25884 0.20707,0.49179 0,0.1553 -0.20707,0.44001 -0.18118,0.25884 -0.18118,0.33649 0,0.0776 0.0776,0.0776 0.12941,0 1.26828,-0.72474 1.16475,-0.72473 2.04479,-0.72473 0.36237,0 0.64709,0.36237 0.3106,0.36236 0.3106,0.72473 0,0.59532 -1.26829,1.91537 -1.26829,1.32006 -1.26829,1.50124 l 0.0259,0.0518 q 0.10353,0.10353 0.3106,0.10353 0.82827,0 1.73419,-0.67297 1.3977,-1.03533 2.9507,-2.27774 0.18119,-0.1553 0.3106,-0.1553 0.12942,0 0.12942,0.12942 z m 5.25433,0 q 0,0.1553 -0.64708,0.72473 -1.63066,1.42359 -2.69188,2.04479 -1.60477,0.9318 -3.18366,0.9318 -1.32005,0 -1.32005,-1.32005 0,-0.41413 0.59532,-1.11298 0.59532,-0.72474 1.2424,-1.44948 0.64709,-0.75061 1.47536,-1.21651 1.19063,-0.67297 1.553,-0.67297 0.44002,0 0.44002,0.51766 0,1.08711 -1.21652,1.99303 -1.19064,0.88003 -1.99302,1.13887 -0.18119,0.0777 -0.20707,0.10353 0,0 -0.0518,0.18118 -0.20707,0.51767 -0.20707,0.62121 0,0.41413 0.72474,0.41413 0.80239,0 1.94125,-0.59532 0.67297,-0.36237 3.08013,-2.27774 0.18118,-0.1553 0.3106,-0.1553 0.1553,0 0.1553,0.12942 z m -3.59779,-0.85415 q 0,-0.0518 -0.0259,-0.0776 -0.0518,0 -0.10353,0 -0.33648,0 -1.03534,0.64708 -0.69885,0.6212 -0.69885,0.9318 0,0.0776 0.10354,0.0776 0.20706,0 0.7765,-0.38825 0.59532,-0.38825 0.75062,-0.59532 0.23295,-0.38825 0.23295,-0.59531 z m 7.6615,-1.03534 q 0,0.38825 -0.54355,0.54355 -0.67297,0.18119 -0.88004,0.49179 -0.0777,0.12941 -0.0777,0.51766 0,0.0776 0.10353,0.25884 0.12942,0.1553 0.1553,0.20707 0.18119,0.38825 0.18119,0.9318 0,0.67297 -0.49179,1.29417 -0.85415,1.0871 -1.78595,1.44947 -1.00945,0.38825 -1.39771,0.38825 -0.90591,0 -1.52712,-0.4659 -0.59531,-0.4659 -0.59531,-1.16475 0,-0.54356 0.18118,-0.80239 0.10353,-0.1553 0.41413,-0.51767 0.28472,-0.23295 0.44002,-0.25883 0.18119,-0.0259 0.44002,-0.25884 0.56943,-0.44001 1.7083,-1.37182 0.41414,-0.28471 0.88004,-0.72473 0.0518,-0.10354 0.33648,-0.38825 0.62121,-0.54355 1.73419,-0.54355 0.72474,0 0.72474,0.41413 z m -2.82129,3.49426 q 0,-0.25883 -0.12942,-0.75062 -0.12942,-0.49178 -0.12942,-0.75062 0,0.0518 0.0777,-0.67297 0,-0.0259 -0.0259,-0.0259 v 0 q -0.12942,0.0259 -1.06122,0.80239 -0.90592,0.75061 -0.90592,0.82826 0,0.0518 0.0518,0.0776 0.38825,0.23296 0.38825,0.46591 0,0.36236 -0.25884,0.69885 -0.23295,0.3106 -0.23295,0.54355 0,0.51767 0.51767,0.51767 0.7765,0 1.2424,-0.49179 0.46591,-0.49178 0.46591,-1.2424 z m 17.98894,-1.60477 q 0,0.12942 -0.23296,0.33648 -0.56943,0.56944 -1.94125,1.68242 -1.57889,1.26829 -2.07067,1.42359 -0.49179,0.1553 -0.7765,0.1553 -0.46591,0 -0.69886,-0.41413 -0.20706,-0.38825 -0.28471,-0.38825 -0.1553,0 -0.93181,0.49178 -0.51766,0.36237 -1.21652,0.36237 -1.19063,0 -1.19063,-0.64709 0,-1.03533 0.36237,-1.47535 0.18118,-0.25883 0.59531,-0.72474 0.54356,-0.54355 1.76008,-1.52712 1.83772,-1.19063 2.40715,-1.19063 0.54355,0 0.69885,0.38825 0.18119,0.38825 0.3106,0.38825 0.18119,0 0.38825,-0.23295 0.23296,-0.25884 0.54356,-0.25884 0.41413,0 0.41413,0.28472 0,0.20707 -1.2424,1.65654 -1.21652,1.44947 -1.21652,1.8636 0,0.36237 0.23295,0.36237 0.51767,0 2.14832,-1.32005 1.65654,-1.34594 1.81184,-1.34594 0.12942,0 0.12942,0.12942 z m -4.01193,-0.85415 q 0,-0.33649 -0.3106,-0.33649 -0.80239,0 -1.99302,1.21652 -1.19064,1.19064 -1.19064,2.04479 0,0.44002 0.41413,0.44002 0.36237,0 1.03534,-0.4659 0.67297,-0.4659 0.95769,-0.80239 1.0871,-1.37182 1.0871,-2.09655 z m 13.25228,0.85415 q 0,0.3106 -2.69187,2.43304 -0.88003,0.67297 -1.50124,0.90592 -1.3977,0.49178 -1.76007,0.49178 -0.44002,0 -0.95768,-0.72473 -0.12942,-0.12942 -0.12942,-0.3106 0,-0.51767 1.34594,-1.88949 1.37182,-1.37182 1.37182,-1.57889 0,-0.20707 -0.4659,-0.20707 -0.41414,0 -1.03534,0.41414 -0.4659,0.3106 -0.95769,0.64708 -0.7765,0.4659 -1.42358,1.37182 -0.49179,0.59532 -1.32006,1.86361 -0.1553,0.28471 -0.49178,0.28471 -0.9318,0 -0.9318,-0.4659 0,-0.20706 0.23295,-0.49178 0.54355,-0.64709 1.52712,-2.01891 0.0518,-0.0776 0.4659,-0.64708 0.36237,-0.49179 0.36237,-0.56944 0,-0.0518 -0.0518,-0.0777 -0.0259,0 -1.0871,0.88004 -1.06122,0.88004 -1.19064,0.88004 -0.12942,0 -0.12942,-0.20707 0,-0.10354 0.28472,-0.33649 0.3106,-0.25883 1.65654,-1.47535 0.25883,-0.33648 0.88003,-0.85415 0.25884,-0.1553 0.4659,-0.1553 0.23296,0 0.44002,0.25883 0.20707,0.25884 0.20707,0.49179 0,0.1553 -0.20707,0.44001 -0.18118,0.25884 -0.18118,0.33649 0,0.0776 0.0776,0.0776 0.12942,0 1.26829,-0.72474 1.16475,-0.72473 2.04478,-0.72473 0.36237,0 0.64709,0.36237 0.3106,0.36236 0.3106,0.72473 0,0.59532 -1.26829,1.91537 -1.26828,1.32006 -1.26828,1.50124 l 0.0259,0.0518 q 0.10353,0.10353 0.3106,0.10353 0.82827,0 1.73419,-0.67297 1.3977,-1.03533 2.95071,-2.27774 0.18118,-0.1553 0.3106,-0.1553 0.12941,0 0.12941,0.12942 z m 12.76055,-11.18163 q 0,0.18118 -0.36237,0.72474 -0.41413,0.6212 -0.49178,0.80238 -0.54355,0.85415 -1.32005,2.07067 -0.51767,1.00946 -1.55301,2.53658 -0.9318,0.95768 -1.13887,1.47535 -0.18118,0.51767 -1.50124,1.94125 -0.56943,0.62121 -1.3977,1.76008 -1.03534,1.3977 -1.03534,1.81183 0,0.67297 0.56944,0.67297 0.51767,0 2.25186,-1.37182 1.76007,-1.37182 1.88948,-1.37182 0.12942,0 0.12942,0.12942 0,0.25883 -1.78595,1.68242 -1.68243,1.37182 -2.17421,1.57889 -0.7765,0.36236 -1.34594,0.36236 -0.38825,0 -0.69885,-0.23295 -0.3106,-0.23295 -0.3106,-0.59531 0,-0.0777 -0.0518,-0.0777 -0.0518,0 -1.06122,0.54355 -0.98356,0.54355 -1.73418,0.54355 -1.68242,0 -1.68242,-1.11299 0,-0.7765 1.2424,-2.27774 0.6212,-0.7765 1.99302,-1.65653 1.50124,-0.95769 2.32951,-0.95769 0.3106,0 0.69885,0.36237 0.38825,0.36236 0.49178,0.36236 0.18119,0 0.36237,-0.23295 0,-0.0259 0.64709,-1.06122 1.34593,-1.96713 3.88251,-5.95318 0.3106,-0.54355 0.64708,-1.11298 0.33649,-0.56944 0.75062,-0.95769 1.16475,-1.0871 1.32005,-1.0871 0.44002,0 0.44002,0.69885 z m -8.72271,10.43101 q 0,-0.20707 -0.20706,-0.41413 -0.20707,-0.23295 -0.41414,-0.23295 -0.23295,0 -0.80238,0.25883 -0.4659,0.20707 -1.24241,1.11299 -0.23295,0.36236 -0.64708,1.0871 -0.64709,1.0871 -0.64709,1.29417 0,0.20707 0.15531,0.41413 0.1553,0.18119 0.36236,0.18119 0.33649,0 1.88949,-1.24241 0.54355,-0.41413 0.80239,-0.88003 0.28471,-0.49179 0.54355,-1.00946 0.20706,-0.33648 0.20706,-0.56943 z m 17.62657,0.75062 q 0,0.25883 -1.13887,1.13887 -1.03533,0.80238 -1.42358,0.9318 -0.18119,0.0518 -0.38826,0.0518 -0.4659,0 -0.82826,-0.23295 -0.33649,-0.23295 -0.28472,-0.23295 -0.1553,0 -0.44002,0.41413 -0.36237,0.59532 -1.29417,1.21652 -0.9318,0.6212 -1.60477,0.6212 -1.65654,0 -1.65654,-1.37182 0,-0.59532 1.55301,-2.3295 0.98357,-1.08711 2.14832,-1.63066 0.36237,-0.20707 0.75062,-0.41413 0.41413,-0.23295 0.72473,-0.23295 0.33649,0 0.51767,0.23295 0.59532,0.82827 0.59532,0.98357 0,0.0518 -0.0259,0.20706 -0.0259,0.12942 -0.0259,0.20707 0,0.0777 0.0259,0.23295 0.0259,0.1553 0.0259,0.23295 0,0.33649 -0.23295,0.59532 -0.20707,0.25883 -0.20707,0.36237 0,0.41413 0.54355,0.41413 0.49179,0 1.42359,-0.75062 0.95768,-0.7765 1.0871,-0.7765 0.1553,0 0.1553,0.12942 z m -4.06369,-0.88004 q 0,-0.20706 -0.33649,-0.20706 -0.12941,0 -0.36236,0.0777 -0.41414,0.1553 -1.29417,1.3977 -0.88004,1.2424 -0.88004,1.78595 0,0.56944 0.51767,0.56944 0.4659,0 1.16475,-0.69885 0.59532,-0.59532 0.85415,-1.11299 0.10354,-0.23295 0.10354,-0.51767 0,-0.0777 -0.0259,-0.20706 -0.0259,-0.1553 -0.0259,-0.23295 0,-0.31061 0.12942,-0.56944 0.1553,-0.25883 0.1553,-0.28472 z m 12.52758,0.80239 q 0,0.3106 -1.91537,1.81184 -1.78595,1.37182 -2.3295,1.65653 -0.51767,0.28472 -1.78596,0.28472 -0.59532,0 -0.59532,-0.41413 0,-0.0776 0.0259,-0.20707 0.0259,-0.12942 0.0259,-0.20707 0,-0.25883 -0.12942,-0.25883 -0.41413,0 -1.37182,0.67297 -0.69885,0.49178 -1.76007,0.49178 -1.16475,0 -1.16475,-1.11298 0,-1.21652 1.553,-2.20009 0.28472,-0.18119 0.85416,-0.64709 0.33648,-0.38825 0.6212,-0.72473 0.3106,-0.33649 0.82827,-0.62121 0.25883,-0.1553 0.4659,-0.1553 0.44002,0 0.44002,0.54356 0,0.38825 -0.82827,1.0871 -2.30363,1.94125 -2.30363,2.84717 0,0.28472 0.3106,0.28472 0.82827,0 2.79541,-1.52712 0.23295,-0.20707 0.98357,-1.16475 0.41414,-0.3106 1.26829,-1.21652 0.33648,-0.4659 0.44002,-0.59532 0.3106,-0.3106 0.6212,-0.3106 h 0.1553 q 0.56943,-0.0259 0.56943,0.3106 0,0.4659 -0.72473,1.11298 -0.90592,0.80239 -1.00946,0.98357 -0.98356,1.68242 -0.98356,2.07068 0,0.1553 0.20706,0.1553 0.56944,0 2.53658,-1.52712 1.96713,-1.52713 2.07067,-1.52713 0.12941,0 0.12941,0.10354 z m 6.18612,0.0777 q 0,0.33648 -2.76952,2.40715 -0.67297,0.49179 -2.07068,1.29417 -0.6212,0.25884 -0.9318,0.25884 -0.4659,0 -0.9318,-0.4659 -0.44002,-0.4659 -0.44002,-0.9318 0,-0.62121 0.85415,-1.37182 0.85416,-0.75062 0.85416,-0.77651 0,-0.41413 -0.36237,-0.41413 -0.23295,0 -1.16475,0.7765 -0.90592,0.75062 -1.21652,0.75062 -0.20707,0 -0.20707,-0.12942 0,0.0259 1.32005,-1.11298 1.13887,-0.95769 1.52712,-1.60477 0.1553,-0.41414 0.33649,-0.82827 0.23295,-0.51767 0.64708,-0.51767 0.18119,0 0.44002,0.23295 0.25883,0.20707 0.25883,0.38825 0,0.23295 -0.28471,0.56943 -0.28472,0.33649 -0.28472,0.51767 0,0.28472 0.44002,0.4659 0.44001,0.1553 0.44001,0.49179 0,0.12942 -0.1553,0.23295 -0.28471,0.20707 -0.82827,0.88003 -0.54355,0.64709 -0.6212,0.93181 -0.0518,0.25883 -0.0518,0.41413 0,0.41414 0.36236,0.41414 0.90592,0 4.3743,-2.84718 0.18118,-0.1553 0.3106,-0.1553 0.1553,0 0.1553,0.12942 z m 10.04277,-1.88949 q 0,0.38825 -0.54355,0.54355 -0.67297,0.18119 -0.88003,0.49179 -0.0777,0.12941 -0.0777,0.51766 0,0.0776 0.10353,0.25884 0.12942,0.1553 0.1553,0.20707 0.18118,0.38825 0.18118,0.9318 0,0.67297 -0.49178,1.29417 -0.85415,1.0871 -1.78595,1.44947 -1.00946,0.38825 -1.39771,0.38825 -0.90592,0 -1.52712,-0.4659 -0.59532,-0.4659 -0.59532,-1.16475 0,-0.54356 0.18119,-0.80239 0.10353,-0.1553 0.41413,-0.51767 0.28472,-0.23295 0.44002,-0.25883 0.18118,-0.0259 0.44002,-0.25884 0.56943,-0.44001 1.7083,-1.37182 0.41414,-0.28471 0.88004,-0.72473 0.0518,-0.10354 0.33648,-0.38825 0.6212,-0.54355 1.73419,-0.54355 0.72473,0 0.72473,0.41413 z m -2.82129,3.49426 q 0,-0.25883 -0.12941,-0.75062 -0.12942,-0.49178 -0.12942,-0.75062 0,0.0518 0.0777,-0.67297 0,-0.0259 -0.0259,-0.0259 v 0 q -0.12942,0.0259 -1.06122,0.80239 -0.90592,0.75061 -0.90592,0.82826 0,0.0518 0.0518,0.0776 0.38826,0.23296 0.38826,0.46591 0,0.36236 -0.25884,0.69885 -0.23295,0.3106 -0.23295,0.54355 0,0.51767 0.51767,0.51767 0.7765,0 1.2424,-0.49179 0.4659,-0.49178 0.4659,-1.2424 z m 11.95812,-1.60477 q 0,0.12942 -0.23295,0.33648 -0.56943,0.56944 -1.94126,1.68242 -1.57888,1.26829 -2.07067,1.42359 -0.49178,0.1553 -0.7765,0.1553 -0.4659,0 -0.69885,-0.41413 -0.20707,-0.38825 -0.28472,-0.38825 -0.1553,0 -0.9318,0.49178 -0.51767,0.36237 -1.21652,0.36237 -1.19064,0 -1.19064,-0.64709 0,-1.03533 0.36237,-1.47535 0.18118,-0.25883 0.59532,-0.72474 0.54355,-0.54355 1.76007,-1.52712 1.83772,-1.19063 2.40716,-1.19063 0.54355,0 0.69885,0.38825 0.18118,0.38825 0.3106,0.38825 0.18118,0 0.38825,-0.23295 0.23295,-0.25884 0.54355,-0.25884 0.41414,0 0.41414,0.28472 0,0.20707 -1.24241,1.65654 -1.21652,1.44947 -1.21652,1.8636 0,0.36237 0.23295,0.36237 0.51767,0 2.14833,-1.32005 1.65653,-1.34594 1.81183,-1.34594 0.12942,0 0.12942,0.12942 z m -4.01193,-0.85415 q 0,-0.33649 -0.3106,-0.33649 -0.80238,0 -1.99302,1.21652 -1.19064,1.19064 -1.19064,2.04479 0,0.44002 0.41414,0.44002 0.36237,0 1.03533,-0.4659 0.67297,-0.4659 0.95769,-0.80239 1.0871,-1.37182 1.0871,-2.09655 z m 9.88745,0.85415 q 0,0.1553 -0.64709,0.72473 -2.0189,1.78596 -3.98604,2.61423 -1.16475,0.49178 -1.52712,0.49178 -0.85415,0 -1.16475,-0.12942 -0.77651,-0.25883 -0.77651,-0.80238 0,-1.76007 2.48481,-3.59779 2.0189,-1.50124 2.53657,-1.50124 1.32006,0 1.32006,1.00945 0,0.28472 -0.41414,0.75062 -0.38825,0.4659 -0.67297,0.4659 -0.18118,0 -0.33648,-0.18118 -0.1553,-0.18119 -0.1553,-0.38825 0,-0.0777 0.0518,-0.28472 0.0777,-0.20707 0.0777,-0.3106 0,-0.20707 -0.12942,-0.20707 -0.28472,0 -0.98357,0.38825 -0.69885,0.38825 -0.7765,0.6212 -0.0259,0.12942 -0.28472,0.54356 -0.23295,0.38825 -0.23295,0.6212 0,0.20706 -0.28472,0.75062 -0.28472,0.51766 -0.28472,0.82826 0,0.62121 0.59532,0.62121 0.3106,0 0.82827,-0.25884 0.3106,-0.12941 0.95769,-0.44002 0.18118,-0.0776 1.03533,-0.59531 0.25884,-0.1553 0.80239,-0.49179 0.25883,-0.18118 1.52712,-1.21652 0.1553,-0.1553 0.3106,-0.1553 0.12942,0 0.12942,0.12942 z m 6.28967,0 q 0,0.33648 -2.76953,2.40715 -0.67296,0.49179 -2.07067,1.29417 -0.6212,0.25884 -0.9318,0.25884 -0.4659,0 -0.9318,-0.4659 -0.44002,-0.4659 -0.44002,-0.9318 0,-0.62121 0.85415,-1.37182 0.85415,-0.75062 0.85415,-0.77651 0,-0.41413 -0.36236,-0.41413 -0.23295,0 -1.16476,0.7765 -0.90592,0.75062 -1.21652,0.75062 -0.20706,0 -0.20706,-0.12942 0,0.0259 1.32005,-1.11298 1.13887,-0.95769 1.52712,-1.60477 0.1553,-0.41414 0.33648,-0.82827 0.23295,-0.51767 0.64709,-0.51767 0.18118,0 0.44002,0.23295 0.25883,0.20707 0.25883,0.38825 0,0.23295 -0.28472,0.56943 -0.28471,0.33649 -0.28471,0.51767 0,0.28472 0.44001,0.4659 0.44002,0.1553 0.44002,0.49179 0,0.12942 -0.1553,0.23295 -0.28472,0.20707 -0.82827,0.88003 -0.54355,0.64709 -0.6212,0.93181 -0.0518,0.25883 -0.0518,0.41413 0,0.41414 0.36237,0.41414 0.90592,0 4.3743,-2.84718 0.18118,-0.1553 0.3106,-0.1553 0.1553,0 0.1553,0.12942 z m 5.15079,0 q 0,0.1553 -0.64709,0.72473 -1.63065,1.42359 -2.69187,2.04479 -1.60477,0.9318 -3.18366,0.9318 -1.32005,0 -1.32005,-1.32005 0,-0.41413 0.59532,-1.11298 0.59531,-0.72474 1.2424,-1.44948 0.64708,-0.75061 1.47535,-1.21651 1.19064,-0.67297 1.55301,-0.67297 0.44002,0 0.44002,0.51766 0,1.08711 -1.21652,1.99303 -1.19064,0.88003 -1.99303,1.13887 -0.18118,0.0777 -0.20706,0.10353 0,0 -0.0518,0.18118 -0.20707,0.51767 -0.20707,0.62121 0,0.41413 0.72474,0.41413 0.80238,0 1.94125,-0.59532 0.67297,-0.36237 3.08013,-2.27774 0.18118,-0.1553 0.3106,-0.1553 0.1553,0 0.1553,0.12942 z m -3.59779,-0.85415 q 0,-0.0518 -0.0259,-0.0776 -0.0518,0 -0.10353,0 -0.33649,0 -1.03534,0.64708 -0.69885,0.6212 -0.69885,0.9318 0,0.0776 0.10353,0.0776 0.20707,0 0.77651,-0.38825 0.59531,-0.38825 0.75062,-0.59532 0.23295,-0.38825 0.23295,-0.59531 z m 16.30655,-10.32748 q 0,0.18118 -0.36237,0.72474 -0.41413,0.6212 -0.49178,0.80238 -0.54355,0.85415 -1.32006,2.07067 -0.51766,1.00946 -1.553,2.53658 -0.9318,0.95768 -1.13887,1.47535 -0.18118,0.51767 -1.50124,1.94125 -0.56943,0.62121 -1.3977,1.76008 -1.03534,1.3977 -1.03534,1.81183 0,0.67297 0.56944,0.67297 0.51767,0 2.25185,-1.37182 1.76008,-1.37182 1.88949,-1.37182 0.12942,0 0.12942,0.12942 0,0.25883 -1.78595,1.68242 -1.68243,1.37182 -2.17421,1.57889 -0.7765,0.36236 -1.34594,0.36236 -0.38825,0 -0.69885,-0.23295 -0.3106,-0.23295 -0.3106,-0.59531 0,-0.0777 -0.0518,-0.0777 -0.0518,0 -1.06122,0.54355 -0.98357,0.54355 -1.73418,0.54355 -1.68242,0 -1.68242,-1.11299 0,-0.7765 1.2424,-2.27774 0.6212,-0.7765 1.99302,-1.65653 1.50124,-0.95769 2.32951,-0.95769 0.3106,0 0.69885,0.36237 0.38825,0.36236 0.49178,0.36236 0.18119,0 0.36237,-0.23295 0,-0.0259 0.64709,-1.06122 1.34593,-1.96713 3.88251,-5.95318 0.3106,-0.54355 0.64708,-1.11298 0.33648,-0.56944 0.75062,-0.95769 1.16475,-1.0871 1.32005,-1.0871 0.44002,0 0.44002,0.69885 z m -8.72271,10.43101 q 0,-0.20707 -0.20706,-0.41413 -0.20707,-0.23295 -0.41414,-0.23295 -0.23295,0 -0.80238,0.25883 -0.4659,0.20707 -1.24241,1.11299 -0.23295,0.36236 -0.64708,1.0871 -0.64709,1.0871 -0.64709,1.29417 0,0.20707 0.1553,0.41413 0.1553,0.18119 0.36237,0.18119 0.33649,0 1.88949,-1.24241 0.54355,-0.41413 0.80239,-0.88003 0.28471,-0.49179 0.54355,-1.00946 0.20706,-0.33648 0.20706,-0.56943 z m 35.2532,-11.12986 q 0,0.20707 -0.12942,0.44002 -0.36237,0.85415 -0.56943,1.29417 -0.95769,1.94125 -2.89895,4.50371 -1.83772,2.40715 -3.49425,3.98604 -0.82827,0.80239 -2.25186,1.11299 -1.42359,0.3106 -1.52712,0.41413 -0.25884,0.23295 -0.4659,0.64709 -0.20707,0.41413 -0.41414,0.80238 -0.6212,1.11299 -0.6212,1.34594 0,0.28472 0.64709,0.28472 0.64708,0 1.99302,-0.54356 1.26829,-0.49178 1.88949,-0.95768 0.64708,-0.4659 1.91537,-1.42359 0.18118,-0.1553 0.3106,-0.1553 0.12942,0 0.12942,0.12942 0,0.1553 -0.64709,0.72473 -2.09655,1.83773 -2.97659,2.12244 -0.44002,0.20707 -1.29417,0.56944 -1.60477,0.59532 -2.51069,0.59532 -0.64708,0 -0.90592,-0.31061 -0.20707,-0.23295 -0.41413,-0.75061 -0.20707,-0.54356 -0.20707,-0.82827 0,-0.3106 0.33648,-0.67297 0.25884,-0.36237 0.88004,-1.03534 0.41413,-0.33648 0.41413,-0.59532 0,-0.12941 -0.88003,-0.12941 -0.23295,0 -0.67297,-0.0259 -0.44002,-0.0518 -0.67297,-0.0518 -0.33648,0 -0.69885,0.4659 -0.75062,0.95768 -2.17421,2.04479 -1.52712,1.16475 -2.56245,1.44947 -1.50124,0.44002 -2.66599,0.44002 -1.11299,0 -1.60477,-0.28472 -0.64709,-0.38825 -0.64709,-1.44947 0,-0.3106 0.10354,-0.59532 0.1553,-0.4659 0.4659,-0.6212 0.3106,-0.18119 0.67296,-0.36237 0.10354,-0.0518 0.41414,-0.33648 1.00945,-0.90592 1.73419,-1.06122 1.34593,-0.33649 4.58136,-0.33649 0.54355,0 0.72473,-0.20706 0.33649,-0.56944 1.03534,-1.65654 1.26829,-2.01891 2.27774,-3.33896 1.57889,-2.12244 1.57889,-2.20009 0,-0.12942 -0.44002,-0.18118 -0.25884,-0.0259 -0.51767,-0.0518 -0.10353,-0.0259 -0.28472,-0.1553 -0.18118,-0.1553 -0.25883,-0.1553 -0.10353,0 -0.23295,0.10353 -0.10353,0.0777 -1.63066,1.44947 -2.53657,2.22598 -8.2568,6.78145 -0.44002,0.33649 -1.32005,1.03534 -0.51767,0.4659 -0.62121,0.4659 -0.20706,0 -0.20706,-0.18118 0,-0.10354 0.12941,-0.20707 0.95769,-0.9318 2.9766,-2.53657 1.16475,-0.93181 3.44249,-2.79541 3.85662,-3.10601 5.64258,-5.12491 1.32005,-1.47536 1.42359,-1.76007 0.0518,-0.20707 0.10353,-0.41414 0.0777,-0.12942 0.38825,-0.23295 0.3106,-0.12942 0.54355,-0.12942 0.33649,0 0.33649,0.36237 0,0.20707 -0.62121,0.90592 -0.75061,0.85415 -0.80238,0.9318 -0.23295,0.38825 -0.23295,0.64709 0,0.23295 0.54355,0.23295 0.54355,0 0.88004,-0.41414 0.44001,-0.72473 1.52712,-2.0189 0.44001,-0.36237 1.34593,-1.13887 0.51767,-0.44002 1.03534,-0.44002 0.75062,0 0.75062,0.67297 0,0.36237 -0.54355,0.80238 -1.03534,0.67297 -2.97659,2.22598 -1.24241,1.21652 -2.58834,4.11546 -0.59532,1.32005 -0.90592,1.88949 -0.54356,1.03533 -1.11299,1.78595 -0.56943,0.75062 -0.56943,0.85415 0,0.1553 0.69885,0.1553 1.57888,0 1.76007,-0.0259 0.33648,0 0.4659,-0.1553 0.1553,-0.18118 0.3106,-0.38825 0.28472,-0.3106 0.80239,-0.9318 0.56943,-0.72474 1.7083,-2.40716 1.03534,-1.57889 1.7083,-2.38127 1.44947,-1.73419 2.92483,-3.05424 2.56246,-2.22598 3.77898,-2.22598 0.69885,0 0.69885,0.64709 z m -0.93181,0.67297 q 0,-0.28472 -0.25883,-0.28472 -0.1553,0 -0.82827,0.25883 -1.78595,0.69886 -4.63313,4.19311 -0.44001,0.54356 -1.16475,1.68242 -0.12942,0.33649 -0.82827,1.21652 -0.3106,0.41414 -0.80238,1.37182 -0.46591,0.95769 -0.77651,1.34594 -0.10353,0.1553 -0.10353,0.20707 0,0.12942 0.28472,0.12942 0.25883,0 1.21652,-0.23295 0.75062,-0.18119 1.94125,-1.37182 0.80239,-0.80239 1.96714,-2.35539 0.64709,-0.72474 1.81184,-2.25186 0.6212,-0.98357 1.26829,-1.96714 0.90591,-1.47535 0.90591,-1.94125 z m -16.5136,10.92279 q 0,-0.18118 -0.62121,-0.18118 -2.89894,0 -3.80486,0.49178 -0.90592,0.49179 -1.44947,1.29417 -0.25883,0.28472 -0.54355,0.59532 -0.25883,0.28472 -0.25883,0.67297 0,0.75062 1.47535,0.75062 1.32006,0 2.38127,-0.6212 0.54356,-0.31061 1.63066,-1.39771 1.19064,-1.16475 1.19064,-1.60477 z m 18.8431,0.28472 q 0,0.25883 -1.13887,1.13887 -1.03533,0.80238 -1.42358,0.9318 -0.18119,0.0518 -0.38825,0.0518 -0.46591,0 -0.82827,-0.23295 -0.33649,-0.23295 -0.28472,-0.23295 -0.1553,0 -0.44002,0.41413 -0.36237,0.59532 -1.29417,1.21652 -0.9318,0.6212 -1.60477,0.6212 -1.65654,0 -1.65654,-1.37182 0,-0.59532 1.55301,-2.3295 0.98357,-1.08711 2.14832,-1.63066 0.36237,-0.20707 0.75062,-0.41413 0.41413,-0.23295 0.72473,-0.23295 0.33649,0 0.51767,0.23295 0.59532,0.82827 0.59532,0.98357 0,0.0518 -0.0259,0.20706 -0.0259,0.12942 -0.0259,0.20707 0,0.0777 0.0259,0.23295 0.0259,0.1553 0.0259,0.23295 0,0.33649 -0.23295,0.59532 -0.20707,0.25883 -0.20707,0.36237 0,0.41413 0.54355,0.41413 0.49179,0 1.42359,-0.75062 0.95769,-0.7765 1.0871,-0.7765 0.1553,0 0.1553,0.12942 z m -4.06369,-0.88004 q 0,-0.20706 -0.33648,-0.20706 -0.12942,0 -0.36237,0.0777 -0.41414,0.1553 -1.29417,1.3977 -0.88004,1.2424 -0.88004,1.78595 0,0.56944 0.51767,0.56944 0.4659,0 1.16475,-0.69885 0.59532,-0.59532 0.85416,-1.11299 0.10353,-0.23295 0.10353,-0.51767 0,-0.0777 -0.0259,-0.20706 -0.0259,-0.1553 -0.0259,-0.23295 0,-0.31061 0.12942,-0.56944 0.1553,-0.25883 0.1553,-0.28472 z m 13.38174,0.88004 q 0,0.3106 -2.69188,2.43304 -0.88003,0.67297 -1.50123,0.90592 -1.39771,0.49178 -1.76007,0.49178 -0.44002,0 -0.95769,-0.72473 -0.12942,-0.12942 -0.12942,-0.3106 0,-0.51767 1.34594,-1.88949 1.37182,-1.37182 1.37182,-1.57889 0,-0.20707 -0.4659,-0.20707 -0.41413,0 -1.03534,0.41414 -0.4659,0.3106 -0.95768,0.64708 -0.7765,0.4659 -1.42359,1.37182 -0.49178,0.59532 -1.32005,1.86361 -0.1553,0.28471 -0.49179,0.28471 -0.9318,0 -0.9318,-0.4659 0,-0.20706 0.23295,-0.49178 0.54355,-0.64709 1.52712,-2.01891 0.0518,-0.0776 0.4659,-0.64708 0.36237,-0.49179 0.36237,-0.56944 0,-0.0518 -0.0518,-0.0777 -0.0259,0 -1.0871,0.88004 -1.06122,0.88004 -1.19064,0.88004 -0.12941,0 -0.12941,-0.20707 0,-0.10354 0.28471,-0.33649 0.31061,-0.25883 1.65654,-1.47535 0.25884,-0.33648 0.88004,-0.85415 0.25883,-0.1553 0.4659,-0.1553 0.23295,0 0.44002,0.25883 0.20706,0.25884 0.20706,0.49179 0,0.1553 -0.20706,0.44001 -0.18119,0.25884 -0.18119,0.33649 0,0.0776 0.0777,0.0776 0.12942,0 1.26829,-0.72474 1.16475,-0.72473 2.04479,-0.72473 0.36237,0 0.64708,0.36237 0.3106,0.36236 0.3106,0.72473 0,0.59532 -1.26828,1.91537 -1.26829,1.32006 -1.26829,1.50124 l 0.0259,0.0518 q 0.10354,0.10353 0.31061,0.10353 0.82826,0 1.73418,-0.67297 1.39771,-1.03533 2.95071,-2.27774 0.18118,-0.1553 0.3106,-0.1553 0.12942,0 0.12942,0.12942 z m 6.9109,0 q 0,0.25883 -1.13887,1.13887 -1.03534,0.80238 -1.42359,0.9318 -0.18118,0.0518 -0.38825,0.0518 -0.4659,0 -0.82827,-0.23295 -0.33648,-0.23295 -0.28472,-0.23295 -0.1553,0 -0.44002,0.41413 -0.36236,0.59532 -1.29417,1.21652 -0.9318,0.6212 -1.60477,0.6212 -1.65653,0 -1.65653,-1.37182 0,-0.59532 1.553,-2.3295 0.98357,-1.08711 2.14832,-1.63066 0.36237,-0.20707 0.75062,-0.41413 0.41414,-0.23295 0.72474,-0.23295 0.33648,0 0.51766,0.23295 0.59532,0.82827 0.59532,0.98357 0,0.0518 -0.0259,0.20706 -0.0259,0.12942 -0.0259,0.20707 0,0.0777 0.0259,0.23295 0.0259,0.1553 0.0259,0.23295 0,0.33649 -0.23295,0.59532 -0.20707,0.25883 -0.20707,0.36237 0,0.41413 0.54356,0.41413 0.49178,0 1.42358,-0.75062 0.95769,-0.7765 1.08711,-0.7765 0.1553,0 0.1553,0.12942 z m -4.0637,-0.88004 q 0,-0.20706 -0.33648,-0.20706 -0.12942,0 -0.36237,0.0777 -0.41413,0.1553 -1.29417,1.3977 -0.88003,1.2424 -0.88003,1.78595 0,0.56944 0.51766,0.56944 0.4659,0 1.16476,-0.69885 0.59531,-0.59532 0.85415,-1.11299 0.10353,-0.23295 0.10353,-0.51767 0,-0.0777 -0.0259,-0.20706 -0.0259,-0.1553 -0.0259,-0.23295 0,-0.31061 0.12941,-0.56944 0.1553,-0.25883 0.1553,-0.28472 z m 10.35332,0.88004 q 0,0.33648 -2.76952,2.40715 -0.67297,0.49179 -2.07067,1.29417 -0.6212,0.25884 -0.93181,0.25884 -0.4659,0 -0.9318,-0.4659 -0.44002,-0.4659 -0.44002,-0.9318 0,-0.62121 0.85416,-1.37182 0.85415,-0.75062 0.85415,-0.77651 0,-0.41413 -0.36237,-0.41413 -0.23295,0 -1.16475,0.7765 -0.90592,0.75062 -1.21652,0.75062 -0.20707,0 -0.20707,-0.12942 0,0.0259 1.32005,-1.11298 1.13887,-0.95769 1.52712,-1.60477 0.15531,-0.41414 0.33649,-0.82827 0.23295,-0.51767 0.64708,-0.51767 0.18119,0 0.44002,0.23295 0.25884,0.20707 0.25884,0.38825 0,0.23295 -0.28472,0.56943 -0.28472,0.33649 -0.28472,0.51767 0,0.28472 0.44002,0.4659 0.44002,0.1553 0.44002,0.49179 0,0.12942 -0.1553,0.23295 -0.28472,0.20707 -0.82827,0.88003 -0.54355,0.64709 -0.6212,0.93181 -0.0518,0.25883 -0.0518,0.41413 0,0.41414 0.36237,0.41414 0.90592,0 4.37429,-2.84718 0.18119,-0.1553 0.3106,-0.1553 0.1553,0 0.1553,0.12942 z"
       id="text1"
       transform="scale(1.0190324,0.98132307)"
       aria-label="`...we mutually pledge to each other our Lives, our Fortunes and our sacred Honor" />
  </g>
</svg>
